<?xml version="1.0" encoding="UTF-8"?>
<svg version="1.1" xmlns="http://www.w3.org/2000/svg" width="1280" height="1280">
<path d="M0 0 C1.26508085 0.00023397 1.26508085 0.00023397 2.5557189 0.00047267 C4.01257488 -0.00289827 4.01257488 -0.00289827 5.49886229 -0.00633731 C6.5807728 -0.0037103 7.6626833 -0.00108328 8.77737897 0.00162334 C9.91987343 0.00046949 11.06236788 -0.00068435 12.23948338 -0.00187316 C15.43905575 -0.00407917 18.63858952 -0.00175084 21.83815883 0.00240497 C25.30827402 0.00582245 28.77838584 0.00347158 32.24850165 0.00182748 C38.33966226 -0.00025216 44.43081312 0.00140754 50.52197259 0.00546569 C59.57940316 0.01148338 68.63682754 0.01180311 77.69425975 0.0109237 C92.92789587 0.00960758 108.16152766 0.01295961 123.39516252 0.01894111 C138.48574272 0.0248513 153.57632113 0.02870567 168.66690248 0.02979392 C170.072555 0.02989703 170.072555 0.02989703 171.50660455 0.03000222 C176.26536595 0.03034054 181.02412735 0.03064193 185.78288876 0.0309291 C219.51885621 0.0330314 253.25482131 0.03977402 286.99078744 0.04923171 C319.77171179 0.05841107 352.5526355 0.06549717 385.33356088 0.06973952 C386.84833629 0.06993681 386.84833629 0.06993681 388.39371321 0.07013809 C398.53473194 0.07145657 408.67575067 0.07273239 418.8167694 0.07397695 C439.47653631 0.07651339 460.13630318 0.07933464 480.79607004 0.08232803 C482.22102987 0.08253396 482.22102987 0.08253396 483.67477677 0.08274406 C547.14884836 0.09194997 610.62291865 0.10779578 674.09698861 0.12467116 C674.09698861 2.43467116 674.09698861 4.74467116 674.09698861 7.12467116 C678.71698861 7.12467116 683.33698861 7.12467116 688.09698861 7.12467116 C688.09698861 9.43467116 688.09698861 11.74467116 688.09698861 14.12467116 C690.40698861 14.12467116 692.71698861 14.12467116 695.09698861 14.12467116 C695.09698861 16.10467116 695.09698861 18.08467116 695.09698861 20.12467116 C696.06636361 20.26904616 697.03573861 20.41342116 698.03448861 20.56217116 C701.09698861 21.12467116 701.09698861 21.12467116 702.09698861 22.12467116 C702.19719791 24.40414908 702.22780165 26.68674251 702.22980111 28.96842116 C702.23075784 29.65271194 702.23171457 30.33700271 702.23270028 31.04202956 C702.23338191 32.49128994 702.23152884 33.94055335 702.22735971 35.38980788 C702.22201114 37.61530044 702.22730521 39.84059117 702.23370736 42.06607741 C702.23304658 43.47102578 702.23176541 44.87597402 702.22980111 46.28092116 C702.22810922 48.21161452 702.22810922 48.21161452 702.22638315 50.18131179 C702.09698861 53.12467116 702.09698861 53.12467116 701.09698861 54.12467116 C699.09740498 54.16547899 697.09653607 54.16721473 695.09698861 54.12467116 C695.11269906 55.23709182 695.11269906 55.23709182 695.1287269 56.37198562 C695.17026057 59.72701309 695.1963065 63.0819865 695.22198861 66.43717116 C695.23874643 67.60441726 695.25550424 68.77166335 695.27276986 69.97428054 C695.28243783 71.65167312 695.28243783 71.65167312 695.29230111 73.36295241 C695.30801156 74.91043166 695.30801156 74.91043166 695.3240394 76.48917312 C695.09698861 79.12467116 695.09698861 79.12467116 693.09698861 82.12467116 C690.47198861 82.31217116 690.47198861 82.31217116 688.09698861 82.12467116 C688.10859018 82.9793196 688.12019174 83.83396804 688.13214486 84.71451491 C688.14568002 86.37160476 688.14568002 86.37160476 688.15948861 88.06217116 C688.17109018 89.1643196 688.18269174 90.26646804 688.19464486 91.40201491 C688.09698861 94.12467116 688.09698861 94.12467116 687.09698861 95.12467116 C685.09740498 95.16547899 683.09653607 95.16721473 681.09698861 95.12467116 C681.10859018 96.0515071 681.12019174 96.97834304 681.13214486 97.93326491 C681.14568002 99.72957351 681.14568002 99.72957351 681.15948861 101.56217116 C681.17109018 102.7571321 681.18269174 103.95209304 681.19464486 105.18326491 C681.09698861 108.12467116 681.09698861 108.12467116 680.09698861 109.12467116 C678.09740498 109.16547899 676.09653607 109.16721473 674.09698861 109.12467116 C674.09698861 111.43467116 674.09698861 113.74467116 674.09698861 116.12467116 C671.78698861 116.12467116 669.47698861 116.12467116 667.09698861 116.12467116 C667.10859018 117.0515071 667.12019174 117.97834304 667.13214486 118.93326491 C667.14568002 120.72957351 667.14568002 120.72957351 667.15948861 122.56217116 C667.17109018 123.7571321 667.18269174 124.95209304 667.19464486 126.18326491 C667.09698861 129.12467116 667.09698861 129.12467116 666.09698861 130.12467116 C664.43081746 130.16530949 662.76310767 130.16739217 661.09698861 130.12467116 C661.10859018 130.81174148 661.12019174 131.49881179 661.13214486 132.20670241 C661.14568002 133.55828445 661.14568002 133.55828445 661.15948861 134.93717116 C661.17109018 135.83049148 661.18269174 136.72381179 661.19464486 137.64420241 C661.09698861 140.12467116 661.09698861 140.12467116 660.09698861 143.12467116 C658.11698861 143.12467116 656.13698861 143.12467116 654.09698861 143.12467116 C654.10859018 143.96771804 654.12019174 144.81076491 654.13214486 145.67935866 C654.14568002 147.32291335 654.14568002 147.32291335 654.15948861 148.99967116 C654.17109018 150.09021804 654.18269174 151.18076491 654.19464486 152.30435866 C654.09698861 155.12467116 654.09698861 155.12467116 653.09698861 157.12467116 C651.11698861 157.12467116 649.13698861 157.12467116 647.09698861 157.12467116 C647.09698861 161.41467116 647.09698861 165.70467116 647.09698861 170.12467116 C644.78698861 170.45467116 642.47698861 170.78467116 640.09698861 171.12467116 C640.11761361 172.09404616 640.13823861 173.06342116 640.15948861 174.06217116 C640.09698861 177.12467116 640.09698861 177.12467116 639.09698861 178.12467116 C637.11698861 178.12467116 635.13698861 178.12467116 633.09698861 178.12467116 C633.09698861 182.41467116 633.09698861 186.70467116 633.09698861 191.12467116 C630.78698861 191.12467116 628.47698861 191.12467116 626.09698861 191.12467116 C626.09698861 195.74467116 626.09698861 200.36467116 626.09698861 205.12467116 C624.11698861 205.12467116 622.13698861 205.12467116 620.09698861 205.12467116 C620.11439096 206.78756179 620.11439096 206.78756179 620.13214486 208.48404616 C620.14152653 209.94758614 620.15062633 211.41112795 620.15948861 212.87467116 C620.16786752 213.60428054 620.17624643 214.33388991 620.18487924 215.08560866 C620.20090546 218.61137674 620.04991575 221.73502033 619.09698861 225.12467116 C617.11698861 225.45467116 615.13698861 225.78467116 613.09698861 226.12467116 C613.10859018 226.89553054 613.12019174 227.66638991 613.13214486 228.46060866 C613.14568002 229.9649446 613.14568002 229.9649446 613.15948861 231.49967116 C613.17109018 232.49740554 613.18269174 233.49513991 613.19464486 234.52310866 C613.09698861 237.12467116 613.09698861 237.12467116 612.09698861 239.12467116 C610.11698861 239.12467116 608.13698861 239.12467116 606.09698861 239.12467116 C606.10859018 239.96771804 606.12019174 240.81076491 606.13214486 241.67935866 C606.14568002 243.32291335 606.14568002 243.32291335 606.15948861 244.99967116 C606.17109018 246.09021804 606.18269174 247.18076491 606.19464486 248.30435866 C606.09698861 251.12467116 606.09698861 251.12467116 605.09698861 253.12467116 C603.11698861 253.12467116 601.13698861 253.12467116 599.09698861 253.12467116 C599.1317933 253.96771804 599.16659799 254.81076491 599.20245736 255.67935866 C599.24306283 257.32291335 599.24306283 257.32291335 599.28448861 258.99967116 C599.3192933 260.09021804 599.35409799 261.18076491 599.38995736 262.30435866 C599.29327768 263.23506179 599.19659799 264.16576491 599.09698861 265.12467116 C596.09698861 267.12467116 596.09698861 267.12467116 592.09698861 267.12467116 C592.09698861 269.10467116 592.09698861 271.08467116 592.09698861 273.12467116 C589.78698861 273.45467116 587.47698861 273.78467116 585.09698861 274.12467116 C585.09698861 278.41467116 585.09698861 282.70467116 585.09698861 287.12467116 C583.11698861 287.12467116 581.13698861 287.12467116 579.09698861 287.12467116 C579.03640268 288.0515071 578.97581674 288.97834304 578.91339486 289.93326491 C578.8296058 291.13080398 578.74581674 292.32834304 578.65948861 293.56217116 C578.57827768 294.7571321 578.49706674 295.95209304 578.41339486 297.18326491 C578.09698861 300.12467116 578.09698861 300.12467116 577.09698861 301.12467116 C575.43081746 301.16530949 573.76310767 301.16739217 572.09698861 301.12467116 C572.10859018 301.89553054 572.12019174 302.66638991 572.13214486 303.46060866 C572.1411683 304.46349929 572.15019174 305.46638991 572.15948861 306.49967116 C572.17109018 307.49740554 572.18269174 308.49513991 572.19464486 309.52310866 C572.09698861 312.12467116 572.09698861 312.12467116 571.09698861 314.12467116 C569.11698861 314.45467116 567.13698861 314.78467116 565.09698861 315.12467116 C565.09698861 319.41467116 565.09698861 323.70467116 565.09698861 328.12467116 C567.07698861 328.45467116 569.05698861 328.78467116 571.09698861 329.12467116 C572.41928051 331.76925495 572.19376056 333.80228418 572.15948861 336.74967116 C572.15046518 337.75256179 572.14144174 338.75545241 572.13214486 339.78873366 C572.11474252 340.94502273 572.11474252 340.94502273 572.09698861 342.12467116 C574.07698861 342.12467116 576.05698861 342.12467116 578.09698861 342.12467116 C578.09698861 344.43467116 578.09698861 346.74467116 578.09698861 349.12467116 C579.55105111 349.09373366 579.55105111 349.09373366 581.03448861 349.06217116 C584.09698861 349.12467116 584.09698861 349.12467116 585.09698861 350.12467116 C585.16957807 352.3110657 585.18072644 354.49967505 585.15948861 356.68717116 C585.15046518 357.88471023 585.14144174 359.08224929 585.13214486 360.31607741 C585.11474252 361.70633132 585.11474252 361.70633132 585.09698861 363.12467116 C586.55105111 363.09373366 586.55105111 363.09373366 588.03448861 363.06217116 C591.09698861 363.12467116 591.09698861 363.12467116 592.09698861 364.12467116 C592.16942915 366.14431315 592.1807605 368.1663424 592.15948861 370.18717116 C592.15046518 371.29189773 592.14144174 372.39662429 592.13214486 373.53482741 C592.1205433 374.38947585 592.10894174 375.24412429 592.09698861 376.12467116 C594.40698861 376.45467116 596.71698861 376.78467116 599.09698861 377.12467116 C599.09698861 379.10467116 599.09698861 381.08467116 599.09698861 383.12467116 C600.06636361 383.24842116 601.03573861 383.37217116 602.03448861 383.49967116 C603.55042611 383.80904616 603.55042611 383.80904616 605.09698861 384.12467116 C606.41928051 386.76925495 606.19376056 388.80228418 606.15948861 391.74967116 C606.15046518 392.75256179 606.14144174 393.75545241 606.13214486 394.78873366 C606.11474252 395.94502273 606.11474252 395.94502273 606.09698861 397.12467116 C607.74698861 397.12467116 609.39698861 397.12467116 611.09698861 397.12467116 C613.66479333 400.96626876 613.32387744 404.93858867 613.22198861 409.37467116 C613.21296518 410.11974929 613.20394174 410.86482741 613.19464486 411.63248366 C613.1711722 413.46335175 613.13530387 415.29405355 613.09698861 417.12467116 C615.07698861 417.45467116 617.05698861 417.78467116 619.09698861 418.12467116 C620.10195714 421.13957673 620.20034164 423.16648808 620.15948861 426.31217116 C620.15046518 427.21322585 620.14144174 428.11428054 620.13214486 429.04263991 C620.11474252 430.07324538 620.11474252 430.07324538 620.09698861 431.12467116 C622.07698861 431.12467116 624.05698861 431.12467116 626.09698861 431.12467116 C626.09698861 435.74467116 626.09698861 440.36467116 626.09698861 445.12467116 C628.40698861 445.12467116 630.71698861 445.12467116 633.09698861 445.12467116 C633.09698861 449.41467116 633.09698861 453.70467116 633.09698861 458.12467116 C635.40698861 458.45467116 637.71698861 458.78467116 640.09698861 459.12467116 C640.09698861 461.10467116 640.09698861 463.08467116 640.09698861 465.12467116 C641.06636361 465.26904616 642.03573861 465.41342116 643.03448861 465.56217116 C646.09698861 466.12467116 646.09698861 466.12467116 647.09698861 467.12467116 C647.16942915 469.14431315 647.1807605 471.1663424 647.15948861 473.18717116 C647.15046518 474.29189773 647.14144174 475.39662429 647.13214486 476.53482741 C647.1205433 477.38947585 647.10894174 478.24412429 647.09698861 479.12467116 C649.07698861 479.12467116 651.05698861 479.12467116 653.09698861 479.12467116 C654.47924878 481.88919149 654.19224248 484.17080747 654.15948861 487.24967116 C654.15046518 488.34537429 654.14144174 489.44107741 654.13214486 490.56998366 C654.11474252 491.83455398 654.11474252 491.83455398 654.09698861 493.12467116 C656.07698861 493.12467116 658.05698861 493.12467116 660.09698861 493.12467116 C661.10195714 496.13957673 661.20034164 498.16648808 661.15948861 501.31217116 C661.15046518 502.21322585 661.14144174 503.11428054 661.13214486 504.04263991 C661.11474252 505.07324538 661.11474252 505.07324538 661.09698861 506.12467116 C663.07698861 506.45467116 665.05698861 506.78467116 667.09698861 507.12467116 C667.09698861 509.10467116 667.09698861 511.08467116 667.09698861 513.12467116 C669.40698861 513.45467116 671.71698861 513.78467116 674.09698861 514.12467116 C674.09698861 518.41467116 674.09698861 522.70467116 674.09698861 527.12467116 C676.07698861 527.12467116 678.05698861 527.12467116 680.09698861 527.12467116 C681.09698861 528.12467116 681.09698861 528.12467116 681.15948861 531.18717116 C681.13886361 532.15654616 681.11823861 533.12592116 681.09698861 534.12467116 C681.88073861 534.08342116 682.66448861 534.04217116 683.47198861 533.99967116 C686.09698861 534.12467116 686.09698861 534.12467116 688.09698861 536.12467116 C688.29230111 538.94498366 688.29230111 538.94498366 688.22198861 542.24967116 C688.20394174 543.34537429 688.18589486 544.44107741 688.16730111 545.56998366 C688.13249643 546.83455398 688.13249643 546.83455398 688.09698861 548.12467116 C690.07698861 548.12467116 692.05698861 548.12467116 694.09698861 548.12467116 C695.57604099 551.08277592 695.21889764 554.07938666 695.19464486 557.31998366 C695.19322992 558.02742721 695.19181497 558.73487075 695.19035714 559.46375198 C695.18475462 561.72576785 695.17220179 563.98768515 695.15948861 566.24967116 C695.15447394 567.78222182 695.14991097 569.31477402 695.14581674 570.84732741 C695.13478438 574.60648005 695.11751813 578.36555889 695.09698861 582.12467116 C696.55105111 582.09373366 696.55105111 582.09373366 698.03448861 582.06217116 C701.09698861 582.12467116 701.09698861 582.12467116 702.09698861 583.12467116 C702.19647938 584.88152791 702.22779121 586.6423445 702.22980111 588.40201491 C702.23109018 589.47258132 702.23237924 590.54314773 702.23370736 591.64615554 C702.22984018 592.7734407 702.22597299 593.90072585 702.22198861 595.06217116 C702.2258558 596.18558913 702.22972299 597.3090071 702.23370736 598.46646804 C702.2324183 599.53832351 702.23112924 600.61017898 702.22980111 601.71451491 C702.22810922 603.19746047 702.22810922 603.19746047 702.22638315 604.71036452 C702.09698861 607.12467116 702.09698861 607.12467116 701.09698861 609.12467116 C699.11698861 609.12467116 697.13698861 609.12467116 695.09698861 609.12467116 C695.09698861 613.41467116 695.09698861 617.70467116 695.09698861 622.12467116 C692.78698861 622.45467116 690.47698861 622.78467116 688.09698861 623.12467116 C688.09698861 625.10467116 688.09698861 627.08467116 688.09698861 629.12467116 C457.75698861 629.12467116 227.41698861 629.12467116 -9.90301139 629.12467116 C-9.90301139 627.14467116 -9.90301139 625.16467116 -9.90301139 623.12467116 C-10.87238639 622.98029616 -11.84176139 622.83592116 -12.84051139 622.68717116 C-15.90301139 622.12467116 -15.90301139 622.12467116 -16.90301139 621.12467116 C-17.00011545 619.7913034 -17.0282407 618.45283255 -17.02836055 617.1159336 C-17.03086407 616.24529171 -17.03336759 615.37464982 -17.03594697 614.47762484 C-17.0336058 613.50830436 -17.03126464 612.53898389 -17.02885253 611.54029006 C-17.03103269 610.00427701 -17.03103269 610.00427701 -17.03325689 608.43723339 C-17.0369452 604.95982192 -17.03341746 601.48245351 -17.02999503 598.00504226 C-17.03114573 595.50526264 -17.03273291 593.0054832 -17.03472227 590.50570411 C-17.03804276 585.04693972 -17.03821664 579.58818884 -17.03567511 574.12942428 C-17.03190609 566.01230237 -17.03381933 557.89518885 -17.03688342 549.778067 C-17.04216055 535.28428196 -17.04168825 520.79050132 -17.03880451 506.29671586 C-17.03629322 493.61328887 -17.03563025 480.92986349 -17.03682715 468.2464363 C-17.03690354 467.40652402 -17.03697992 466.56661173 -17.03705862 465.70124756 C-17.03736994 462.29214005 -17.03768833 458.88303253 -17.03801838 455.47392502 C-17.04108036 423.46568535 -17.03829922 391.45744849 -17.03292149 359.44920925 C-17.02817556 330.98490859 -17.02860017 302.52061241 -17.03338248 274.05631179 C-17.0387321 242.10822721 -17.04086324 210.16014512 -17.03777022 178.21206016 C-17.03744948 174.80900878 -17.03713664 171.4059574 -17.03682715 168.00290603 C-17.03674807 167.16493076 -17.036669 166.32695549 -17.03658752 165.46358703 C-17.03544798 152.78524575 -17.03678417 140.10690625 -17.0393067 127.42856521 C-17.04215932 113.01896351 -17.04146536 98.60936692 -17.03602596 84.19976586 C-17.03307914 76.12600067 -17.0329131 68.05224651 -17.03667213 59.97848159 C-17.03916351 53.9666058 -17.03648191 47.95474451 -17.03169756 41.94286961 C-17.03057217 39.49807974 -17.03116721 37.05328841 -17.03357335 34.60849947 C-17.03657413 31.30866197 -17.03353619 28.00888642 -17.02885253 24.70905227 C-17.03119369 23.73973179 -17.03353486 22.77041132 -17.03594697 21.77171749 C-17.03344345 20.9010756 -17.03093993 20.03043371 -17.02836055 19.13340873 C-17.02829279 18.37759438 -17.02822503 17.62178004 -17.02815522 16.84306223 C-16.90301139 15.12467116 -16.90301139 15.12467116 -15.90301139 14.12467116 C-13.90342775 14.08386334 -11.90255885 14.0821276 -9.90301139 14.12467116 C-9.90301139 11.81467116 -9.90301139 9.50467116 -9.90301139 7.12467116 C-7.59301139 7.12467116 -5.28301139 7.12467116 -2.90301139 7.12467116 C-2.92363639 6.15529616 -2.94426139 5.18592116 -2.96551139 4.18717116 C-2.88391468 0.18893266 -2.88391468 0.18893266 0 0 Z " fill="#000000" transform="translate(389.9030113853514,119.87532883509994)"/>
<path d="M0 0 C4.31248609 -0.02886537 8.62494762 -0.04675255 12.9375 -0.0625 C14.78504883 -0.07506836 14.78504883 -0.07506836 16.66992188 -0.08789062 C18.4246582 -0.09272461 18.4246582 -0.09272461 20.21484375 -0.09765625 C21.84087524 -0.10551147 21.84087524 -0.10551147 23.49975586 -0.11352539 C26 0 26 0 27 1 C27 2.98 27 4.96 27 7 C47.13 7 67.26 7 88 7 C88 9.31 88 11.62 88 14 C88.969375 13.979375 89.93875 13.95875 90.9375 13.9375 C94 14 94 14 95 15 C95.0991836 17.3699463 95.13254227 19.71075471 95.1241985 22.08125025 C95.12547658 22.83598198 95.12675467 23.59071371 95.12807148 24.3683161 C95.13117014 26.93486296 95.12704954 29.50134999 95.12304783 32.06789494 C95.12378652 33.91945 95.12496409 35.77100492 95.12654433 37.62255946 C95.12963471 42.75881529 95.12642066 47.89505155 95.12226619 53.03130594 C95.11885005 58.60082612 95.12119932 64.17034419 95.12284368 69.73986477 C95.12492375 79.51708793 95.12326291 89.29430502 95.11920547 99.07152748 C95.11318883 113.61007052 95.11286627 128.14861066 95.11374746 142.68715453 C95.11515664 167.13920627 95.11171832 191.59125541 95.10573006 216.04330635 C95.09981203 240.26632258 95.09595586 264.48933771 95.09487724 288.71235466 C95.09484283 289.46401573 95.09480842 290.21567679 95.09477296 290.99011546 C95.09445977 297.855159 95.09417208 304.72020253 95.09391499 311.58524607 C95.09327551 328.65265815 95.09231614 345.72007021 95.09113979 362.78748226 C95.09105982 363.95343263 95.09105982 363.95343263 95.09097823 365.14293754 C95.08835531 402.9744425 95.08204718 440.80594673 95.07543945 478.63745117 C95.07314784 491.76944986 95.0708725 504.90144856 95.06866455 518.03344727 C95.0685276 518.84787068 95.06839065 519.6622941 95.06824955 520.50139701 C95.06190806 558.3462778 95.05818072 596.19115872 95.05512976 634.03603991 C95.05493169 636.49229197 95.0547325 638.94854403 95.05453308 641.4047961 C95.05321332 657.68220539 95.05193867 673.95961469 95.05069422 690.23702399 C95.04821757 722.62634453 95.04547588 755.01566504 95.04255217 787.40498554 C95.04241293 788.9475263 95.04227388 790.49006707 95.04213501 792.03260784 C95.03495749 871.74027031 95.02356725 951.44793207 95 1100 C92.35261084 1101.4606285 91.10551666 1102 88 1102 C88 1103.98 88 1105.96 88 1108 C83.83682426 1109.16236418 79.80925779 1109.14020831 75.51538086 1109.12939453 C74.66130142 1109.13114685 73.80722198 1109.13289917 72.92726135 1109.13470459 C70.10643477 1109.13910298 67.28567096 1109.13619244 64.46484375 1109.1328125 C62.50476571 1109.13348605 60.54468774 1109.13445651 58.58460999 1109.13571167 C54.47819218 1109.13718586 50.37179613 1109.13504277 46.26538086 1109.13037109 C40.99706004 1109.12467022 35.72879011 1109.12795685 30.46047115 1109.13394356 C26.4139416 1109.13755346 22.36742416 1109.13640867 18.32089424 1109.13381577 C16.37798621 1109.13314788 14.43507709 1109.1339701 12.49217033 1109.13629532 C9.77982536 1109.13882925 7.06756339 1109.13497089 4.35522461 1109.12939453 C3.14653214 1109.13243088 3.14653214 1109.13243088 1.91342163 1109.13552856 C-1.32047757 1109.12318535 -3.90958047 1109.03013984 -7 1108 C-7 1106.02 -7 1104.04 -7 1102 C-7.969375 1102.020625 -8.93875 1102.04125 -9.9375 1102.0625 C-13 1102 -13 1102 -14 1101 C-14.09918659 1098.6257964 -14.13254182 1096.28067806 -14.1241985 1093.90592569 C-14.12547658 1093.14980511 -14.12675467 1092.39368452 -14.12807148 1091.61465119 C-14.13117015 1089.04337036 -14.12704953 1086.47214925 -14.12304783 1083.90087032 C-14.12378652 1082.04590441 -14.12496409 1080.19093862 -14.12654433 1078.33597323 C-14.12963472 1073.19024705 -14.12642066 1068.04454039 -14.12226619 1062.89881565 C-14.11885006 1057.31902943 -14.12119932 1051.73924531 -14.12284368 1046.1594587 C-14.12492375 1036.36421078 -14.12326291 1026.56896891 -14.11920547 1016.77372169 C-14.11318884 1002.20837615 -14.11286627 987.6430335 -14.11374746 973.07768711 C-14.11515664 948.58055755 -14.11171832 924.08343057 -14.10573006 899.5863018 C-14.09981203 875.31862818 -14.09595586 851.05095567 -14.09487724 826.78328133 C-14.09484283 826.03023465 -14.09480842 825.27718797 -14.09477296 824.50132169 C-14.09445977 817.62362317 -14.09417208 810.74592466 -14.09391499 803.86822613 C-14.09327551 786.76935168 -14.09231614 769.67047725 -14.09113979 752.57160282 C-14.09108648 751.79286967 -14.09103316 751.01413652 -14.09097823 750.21180539 C-14.08835531 712.31055539 -14.08204718 674.40930612 -14.07543945 636.50805664 C-14.07314784 623.35184734 -14.0708725 610.19563803 -14.06866455 597.03942871 C-14.0685276 596.2235038 -14.06839065 595.40757889 -14.06824955 594.56692898 C-14.06190806 556.65227998 -14.05818072 518.73763085 -14.05512976 480.82298146 C-14.05493169 478.36220137 -14.0547325 475.90142129 -14.05453308 473.4406412 C-14.05321332 457.13322511 -14.05193867 440.82580901 -14.05069422 424.51839291 C-14.04821757 392.06936356 -14.04547588 359.62033423 -14.04255217 327.17130491 C-14.04241293 325.62592049 -14.04227388 324.08053608 -14.04213501 322.53515166 C-14.03495749 242.68054356 -14.02356725 162.82593617 -14 14 C-11.69 14 -9.38 14 -7 14 C-7 11.69 -7 9.38 -7 7 C-4.69 7 -2.38 7 0 7 C0 4.69 0 2.38 0 0 Z " fill="#000101" transform="translate(264,120)"/>
<path d="M0 0 C0.99 0.33 1.98 0.66 3 1 C2.99777939 2.05013779 2.99555878 3.10027557 2.99327087 4.18223572 C2.97303985 14.05645581 2.95802805 23.93067172 2.94818783 33.8049078 C2.9429589 38.88191018 2.93586108 43.95889589 2.92456055 49.03588867 C2.91373201 53.93120552 2.90772324 58.82650629 2.90512276 63.72183418 C2.90326845 65.59382951 2.89964772 67.46582391 2.89426994 69.33781242 C2.88705996 71.95040699 2.88600904 74.56293427 2.88647461 77.17553711 C2.88287933 77.95740387 2.87928406 78.73927063 2.87557983 79.54483032 C2.55716038 83.06522819 2.55716038 83.06522819 4 86 C4.10148301 88.26466029 4.13078265 90.53255319 4.13371277 92.79948425 C4.13597833 93.51889405 4.13824388 94.23830385 4.14057809 94.97951394 C4.14694649 97.40847775 4.14608691 99.83738616 4.14526367 102.26635742 C4.1482535 104.00059075 4.15165561 105.7348234 4.15544128 107.46905518 C4.16430597 112.19445828 4.1666205 116.91984329 4.16725707 121.6452539 C4.1682046 125.58647107 4.1718813 129.527684 4.17542917 133.46889955 C4.18358398 142.76873794 4.18601256 152.06856665 4.18530273 161.3684082 C4.18470246 170.96532223 4.1952419 180.56217995 4.2110464 190.15907973 C4.22412185 198.39182462 4.22948659 206.62455111 4.22884732 214.8573063 C4.22859223 219.77705982 4.23144936 224.69676339 4.24202538 229.61650658 C4.2517058 234.24656639 4.25178589 238.87652854 4.24450874 243.5065918 C4.24346266 245.20532181 4.2458272 246.90405789 4.2518692 248.60277748 C4.25958917 250.92383232 4.25494429 253.24454993 4.24723816 255.56559753 C4.24778293 256.86402682 4.24832769 258.16245611 4.24888897 259.50023174 C4.00049583 262.99302791 3.26277846 265.74816625 2 269 C0.5 268 0.5 268 -1 266 C-1.23092232 263.31140445 -1.08587328 260.70500833 -1 258 C-1.33 257.34 -1.66 256.68 -2 256 C-2.07160734 253.68851505 -2.08397827 251.3749941 -2.0625 249.0625 C-2.05347656 247.81597656 -2.04445313 246.56945312 -2.03515625 245.28515625 C-2.02355469 244.20105469 -2.01195312 243.11695313 -2 242 C-2 241.01 -2 240.02 -2 239 C-1.34 238.01 -0.68 237.02 0 236 C-0.48082031 235.59523438 -0.96164062 235.19046875 -1.45703125 234.7734375 C-3.32733304 232.62377418 -3.47176271 231.43437892 -3.6875 228.625 C-3.75195312 227.8309375 -3.81640625 227.036875 -3.8828125 226.21875 C-4.01026603 223.80562992 -4.0710529 221.41579863 -4 219 C-4 218.01 -4 217.02 -4 216 C-4 213 -4 213 -2 211 C-2.66 210.34 -3.32 209.68 -4 209 C-4.0450286 207.33394172 -4.03874921 205.66621616 -4 204 C-4.226875 203.175 -4.45375 202.35 -4.6875 201.5 C-5.10730391 198.14156876 -3.9209193 196.68928702 -2 194 C-2.66 193.67 -3.32 193.34 -4 193 C-4 192.01 -4 191.02 -4 190 C-3.34 190 -2.68 190 -2 190 C-2.33 188.68 -2.66 187.36 -3 186 C-2.34 186 -1.68 186 -1 186 C-1.0934535 181.6213617 -1.19952754 177.24326804 -1.31738281 172.86523438 C-1.35569998 171.37541111 -1.39054808 169.88549446 -1.421875 168.39550781 C-1.46746729 166.25551952 -1.52546874 164.11617564 -1.5859375 161.9765625 C-1.6173584 160.68830566 -1.6487793 159.40004883 -1.68115234 158.07275391 C-1.68458268 154.89518495 -1.68458268 154.89518495 -4 153 C-3.34 153 -2.68 153 -2 153 C-2.14168137 151.56208484 -2.28851043 150.1246763 -2.4375 148.6875 C-2.51871094 147.88699219 -2.59992188 147.08648438 -2.68359375 146.26171875 C-2.95265693 143.83912821 -2.95265693 143.83912821 -4 141 C-3.01 140.67 -2.02 140.34 -1 140 C-1.11409593 138.54077307 -1.24165544 137.08259402 -1.375 135.625 C-1.44460938 134.81289063 -1.51421875 134.00078125 -1.5859375 133.1640625 C-1.82892588 130.79665809 -1.82892588 130.79665809 -4 129 C-4 122.33333333 -4 115.66666667 -4 109 C-3.34 109 -2.68 109 -2 109 C-2 108.34 -2 107.68 -2 107 C-2.66 106.67 -3.32 106.34 -4 106 C-4.0270491 102.93744039 -4.04686298 99.8751214 -4.0625 96.8125 C-4.07087891 95.94818359 -4.07925781 95.08386719 -4.08789062 94.19335938 C-4.10396812 89.99713231 -4.07559038 86.09063114 -3 82 C-3.66 81.67 -4.32 81.34 -5 81 C-4.835 80.01 -4.67 79.02 -4.5 78 C-4.08922781 75.1987619 -3.95860834 72.51765446 -4 69.6875 C-4 66 -4 66 -3 64 C-3.66 63.67 -4.32 63.34 -5 63 C-4.835 62.30261719 -4.67 61.60523438 -4.5 60.88671875 C-3.96370079 57.79042878 -3.93760832 54.95158139 -4 51.8125 C-4.11032028 46.22064057 -4.11032028 46.22064057 -3 44 C-3.66 43.67 -4.32 43.34 -5 43 C-4.57533786 39.46114882 -4.10737366 36.29229498 -2.875 32.9375 C-1.8289479 29.42575366 -2.24442372 27.57181515 -3 24 C-3.77075887 18.4505361 -4.24338557 13.52615811 -3 8 C-3 7.34 -3 6.68 -3 6 C-3.66 5.67 -4.32 5.34 -5 5 C-3.35 5 -1.7 5 0 5 C0 3.35 0 1.7 0 0 Z " fill="#001511" transform="translate(355,771)"/>
<path d="M0 0 C0.33 1.32 0.66 2.64 1 4 C1.66 4 2.32 4 3 4 C4.00798842 7.02396527 4.12571133 9.03609138 4.12698364 12.19754028 C4.12980347 13.27408371 4.13262329 14.35062714 4.13552856 15.45979309 C4.13350433 16.64111313 4.1314801 17.82243317 4.12939453 19.03955078 C4.13114685 20.28374283 4.13289917 21.52793488 4.13470459 22.80982971 C4.13835667 26.22545795 4.13749277 29.64102576 4.1343255 33.05665064 C4.13179335 36.63590228 4.13414214 40.21515134 4.13571167 43.79440308 C4.13753227 49.81183332 4.13513139 55.8292513 4.13037109 61.84667969 C4.12494351 68.7874202 4.1266806 75.72813126 4.1321975 82.66887105 C4.13674948 88.63590436 4.13736855 94.60292885 4.13475883 100.56996334 C4.1332056 104.12993086 4.13297573 107.6898846 4.13629532 111.24985123 C4.13974526 115.22793959 4.13495032 119.20599559 4.12939453 123.18408203 C4.13141876 124.35325668 4.13344299 125.52243134 4.13552856 126.72703552 C4.12139057 132.20942218 3.91667649 137.53681055 3.22570801 142.97504807 C2.86681645 146.19486358 2.88076538 149.39397191 2.88647461 152.63110352 C2.88632858 153.33467484 2.88618256 154.03824615 2.8860321 154.76313782 C2.88671989 157.05176045 2.89445815 159.34029812 2.90234375 161.62890625 C2.90421197 163.23030045 2.90563397 164.83169523 2.90663147 166.43309021 C2.91042481 170.62022518 2.92022743 174.8073247 2.93133545 178.9944458 C2.94161848 183.27819337 2.94614377 187.56194674 2.95117188 191.84570312 C2.96185297 200.2304849 2.97889054 208.61523802 3 217 C2.01 217.33 1.02 217.66 0 218 C-2 217 -2 217 -2.6875 215.0625 C-3 213 -3 213 -2 211 C-2.66 210.34 -3.32 209.68 -4 209 C-6.16041397 197.76584735 -6.16041397 197.76584735 -3.5625 193.8125 C-3.046875 193.214375 -2.53125 192.61625 -2 192 C-1.67 191.01 -1.34 190.02 -1 189 C-1.33 188.34 -1.66 187.68 -2 187 C-2 186.01 -2 185.02 -2 184 C-2.50144531 183.38253906 -3.00289063 182.76507812 -3.51953125 182.12890625 C-5.41978992 179.39634431 -5.16100693 178.18508791 -4.6875 174.9375 C-3.98583612 169.25554793 -3.91307916 163.7174596 -4 158 C-4 143 -4 143 -3.4375 140.625 C-2.95961841 137.75771047 -3.40711384 135.81620925 -4 133 C-3.67 132.01 -3.34 131.02 -3 130 C-2.84188612 126.94729537 -2.84188612 126.94729537 -4 124 C-4 122.09762016 -3.9895479 120.19518818 -3.96484375 118.29296875 C-3.91856438 113.03695502 -4.11452471 108.18635526 -5 103 C-4.5625 100.125 -4.5625 100.125 -4 98 C-3.34 98 -2.68 98 -2 98 C-2 97.01 -2 96.02 -2 95 C-2.66 94.67 -3.32 94.34 -4 94 C-3.34 94 -2.68 94 -2 94 C-2 93.01 -2 92.02 -2 91 C-2.66 91 -3.32 91 -4 91 C-4.26840376 87.86862286 -4.23906152 86.36855317 -2.5 83.6875 C-0.34694848 79.82994935 -0.57490995 77.39259714 -1 73 C-1.9793879 71.97980427 -2.97895449 70.97850195 -4 70 C-4.1875 66.4375 -4.1875 66.4375 -4 63 C-4 62.34 -4 61.68 -4 61 C-4 59.33333333 -4 57.66666667 -4 56 C-3.01 56 -2.02 56 -1 56 C-1 49.07 -1 42.14 -1 35 C-1.99 34.67 -2.98 34.34 -4 34 C-3.34 33.34 -2.68 32.68 -2 32 C-3.32 30.35 -4.64 28.7 -6 27 C-5.34 26.34 -4.68 25.68 -4 25 C-3.87940746 22.40284845 -3.86037289 19.90443848 -3.9375 17.3125 C-4.06758 12.11411763 -4.13818509 7.11218728 -3 2 C-2.01 1.34 -1.02 0.68 0 0 Z " fill="#001410" transform="translate(355,394)"/>
<path d="M0 0 C1.32 0 2.64 0 4 0 C4.12375 0.639375 4.2475 1.27875 4.375 1.9375 C4.684375 2.9584375 4.684375 2.9584375 5 4 C5.66 4.33 6.32 4.66 7 5 C7.02324884 13.84104189 7.04097872 22.68207313 7.05181217 31.523139 C7.05701368 35.6291252 7.0640613 39.73509036 7.07543945 43.84106445 C7.08636593 47.80922716 7.09229738 51.77736974 7.09487724 55.74554634 C7.09671399 57.25367105 7.10030046 58.76179476 7.10573006 60.26991081 C7.12968076 67.20297694 7.13981415 74.05007629 6.22584534 80.93406677 C5.78503767 84.9663803 5.87837013 89.01491116 5.90234375 93.06640625 C5.90446617 94.44565529 5.90446617 94.44565529 5.90663147 95.85276794 C5.91217688 98.75604671 5.92471883 101.65924501 5.9375 104.5625 C5.94252207 106.54492075 5.94708373 108.52734273 5.95117188 110.50976562 C5.96212836 115.3398742 5.97935458 120.16992351 6 125 C4.02 125.495 4.02 125.495 2 126 C1.98786972 125.10464035 1.98786972 125.10464035 1.97549438 124.19119263 C1.88962803 117.9945903 1.79013307 111.79831452 1.68261719 105.60205078 C1.64426599 103.28765331 1.6094241 100.97319498 1.578125 98.65869141 C1.5326076 95.33734336 1.47459157 92.01641659 1.4140625 88.6953125 C1.40251129 87.65569366 1.39096008 86.61607483 1.37905884 85.54495239 C1.3492543 84.10368484 1.3492543 84.10368484 1.31884766 82.63330078 C1.30552399 81.78502716 1.29220032 80.93675354 1.2784729 80.06277466 C1.18223842 77.77813881 1.18223842 77.77813881 -1 76 C-1.21118164 73.78857422 -1.21118164 73.78857422 -1.16015625 71.0546875 C-1.1437207 69.56195313 -1.1437207 69.56195313 -1.12695312 68.0390625 C-1.10568359 66.99492187 -1.08441406 65.95078125 -1.0625 64.875 C-0.86794355 56.70693228 -0.86794355 56.70693228 -1.51953125 48.578125 C-1.93753665 45.46517419 -2.00273102 42.96831078 -1.625 39.875 C-1.52960938 39.03324219 -1.43421875 38.19148438 -1.3359375 37.32421875 C-1 35 -1 35 -0.25 31.6875 C0.0727342 28.21810731 -1.0525226 26.80436745 -3 24 C-3 23.34 -3 22.68 -3 22 C-2.34 22 -1.68 22 -1 22 C-1.04125 20.989375 -1.0825 19.97875 -1.125 18.9375 C-1 15 -1 15 0.0625 11.5625 C1.20965265 7.20331992 0.77275791 4.40472007 0 0 Z " fill="#001B13" transform="translate(352,240)"/>
<path d="M0 0 C2.475 0.99 2.475 0.99 5 2 C4.99214478 3.8097229 4.99214478 3.8097229 4.98413086 5.65600586 C4.96608389 10.11563378 4.95456911 14.57525846 4.94506836 19.03491211 C4.94002744 20.96818585 4.93319481 22.90145576 4.92456055 24.8347168 C4.91248435 27.60726872 4.90676943 30.37977041 4.90234375 33.15234375 C4.89718246 34.02213364 4.89202118 34.89192352 4.88670349 35.78807068 C4.88650815 37.85905814 4.93791832 39.92994324 5 42 C5.33 42.33 5.66 42.66 6 43 C6.10495064 45.25377399 6.13857386 47.5108835 6.14526367 49.76708984 C6.15030159 50.82809654 6.15030159 50.82809654 6.15544128 51.91053772 C6.16497943 54.2606886 6.16689593 56.61076844 6.16796875 58.9609375 C6.17117973 60.58899974 6.17454368 62.21706168 6.17805481 63.84512329 C6.18405352 67.26329212 6.18589399 70.68143565 6.18530273 74.09960938 C6.18520116 78.48359435 6.19884544 82.8674172 6.21607494 87.25136375 C6.22718494 90.61592354 6.22922224 93.98044404 6.22869301 97.34502029 C6.22987494 98.96137678 6.23430863 100.57773422 6.24202538 102.19407272 C6.25180369 104.45420471 6.24895575 106.71398363 6.24291992 108.97412109 C6.24434494 110.26128021 6.24576996 111.54843933 6.24723816 112.87460327 C6 116 6 116 4 119 C3.10577086 117.7636832 2.23512109 116.51028438 1.375 115.25 C0.64410156 114.20585938 0.64410156 114.20585938 -0.1015625 113.140625 C-0.39804687 112.43421875 -0.69453125 111.7278125 -1 111 C-0.0625 108.90625 -0.0625 108.90625 1 107 C-0.28184562 104.25167846 -0.28184562 104.25167846 -2 102 C-1.01 101.01 -0.02 100.02 1 99 C0.67 98.05125 0.34 97.1025 0 96.125 C-1.31834321 91.5202155 -1.59087519 86.75306957 -1 82 C-0.01 81.01 -0.01 81.01 1 80 C0.835 79.175 0.67 78.35 0.5 77.5 C0.335 76.675 0.17 75.85 0 75 C0.99 74.01 0.99 74.01 2 73 C1.7910998 71.3998675 1.5687319 69.80063155 1.28857422 68.21142578 C0.56461939 62.66355538 1.00998972 56.9436724 1.12695312 51.36132812 C1.18556738 46.08259769 0.93207463 41.98782446 -1 37 C-0.67 36.34 -0.34 35.68 0 35 C0.08667255 32.37372867 0.11560135 29.77437517 0.09765625 27.1484375 C0.0962413 26.37440582 0.09482635 25.60037415 0.09336853 24.80288696 C0.08776403 22.32688558 0.07521083 19.85097412 0.0625 17.375 C0.05748558 15.69791797 0.05292257 14.02083453 0.04882812 12.34375 C0.03779315 8.22913194 0.02052554 4.11458122 0 0 Z " fill="#00100A" transform="translate(353,1054)"/>
<path d="M0 0 C1.82664785 1.82664785 1.12643684 4.36818272 1.13552856 6.79942322 C1.13350433 7.63260574 1.1314801 8.46578827 1.12939453 9.32421875 C1.13114685 10.19748306 1.13289917 11.07074738 1.13470459 11.97047424 C1.13912821 14.87616935 1.13618131 17.7818042 1.1328125 20.6875 C1.13348588 22.70475272 1.13445619 24.72200537 1.13571167 26.73925781 C1.13718972 30.97966276 1.13503245 35.22004671 1.13037109 39.46044922 C1.12470284 44.87959996 1.12793359 50.29870086 1.13394356 55.71784973 C1.1375712 59.89073048 1.13639998 64.06359959 1.13381577 68.23648071 C1.13315107 70.23304246 1.13395887 72.22960528 1.13629532 74.22616577 C1.13885476 77.03101358 1.13493389 79.83578298 1.12939453 82.640625 C1.13141876 83.45761368 1.13344299 84.27460236 1.13552856 85.11634827 C1.11243815 91.47573834 1.02391412 97.92825764 -1 104 C-1.66 104 -2.32 104 -3 104 C-3.90018006 98.59891963 -3.91406195 93.96964689 -3.2578125 88.54296875 C-2.86647635 84.68297124 -2.93746756 80.87701138 -3 77 C-3.99 76.67 -4.98 76.34 -6 76 C-5.01 75.505 -5.01 75.505 -4 75 C-3.41658429 73.01724169 -3.41658429 73.01724169 -3.1875 70.6875 C-3.07792969 69.90761719 -2.96835937 69.12773437 -2.85546875 68.32421875 C-3.03912234 65.37087053 -4.24730515 64.32793829 -6 62 C-6.29296875 59.52734375 -6.29296875 59.52734375 -6.1875 56.9375 C-6.14689453 55.65166016 -6.14689453 55.65166016 -6.10546875 54.33984375 C-6.05326172 53.18162109 -6.05326172 53.18162109 -6 52 C-5.84188612 48.94729537 -5.84188612 48.94729537 -7 46 C-7 43.16032769 -6.59732819 40.76264289 -6 38 C-5.34 38 -4.68 38 -4 38 C-4.0721875 37.40832031 -4.144375 36.81664062 -4.21875 36.20703125 C-4.70090263 32.1020373 -5 28.13517007 -5 24 C-5.33 23.34 -5.66 22.68 -6 22 C-5.34 21.01 -4.68 20.02 -4 19 C-4.15827178 15.39132451 -4.15827178 15.39132451 -5 12 C-5.66 11.67 -6.32 11.34 -7 11 C-7 9.35 -7 7.7 -7 6 C-7.99 6 -8.98 6 -10 6 C-10.66 6 -11.32 6 -12 6 C-12.33 6.66 -12.66 7.32 -13 8 C-13 6.02 -13 4.04 -13 2 C-8.50492881 0.24582588 -4.8215583 -0.28362108 0 0 Z M-6 4 C-5 6 -5 6 -5 6 Z M-3 62 C-2 64 -2 64 -2 64 Z " fill="#001B14" transform="translate(358,134)"/>
<path d="M0 0 C1.32 0 2.64 0 4 0 C4.05075471 7.86536907 4.0857567 15.73069582 4.10986328 23.59619141 C4.11878335 26.27139966 4.13355637 28.94639389 4.15087891 31.62158203 C4.17516701 35.46910308 4.18649245 39.31647872 4.1953125 43.1640625 C4.20563507 44.35802643 4.21595764 45.55199036 4.22659302 46.78213501 C4.22674408 47.90284393 4.22689514 49.02355286 4.22705078 50.17822266 C4.231492 51.15973297 4.23593323 52.14124329 4.24050903 53.15249634 C3.97076021 56.34618409 3.11930105 59.00689275 2 62 C0.5 61 0.5 61 -1 59 C-1.23092232 56.31140445 -1.08587328 53.70500833 -1 51 C-1.33 50.34 -1.66 49.68 -2 49 C-2.07160734 46.68851505 -2.08397827 44.3749941 -2.0625 42.0625 C-2.05347656 40.81597656 -2.04445313 39.56945312 -2.03515625 38.28515625 C-2.02355469 37.20105469 -2.01195312 36.11695313 -2 35 C-2 34.01 -2 33.02 -2 32 C-1.34 31.01 -0.68 30.02 0 29 C-0.48082031 28.59523438 -0.96164062 28.19046875 -1.45703125 27.7734375 C-3.32733304 25.62377418 -3.47176271 24.43437892 -3.6875 21.625 C-3.75195312 20.8309375 -3.81640625 20.036875 -3.8828125 19.21875 C-4.01026603 16.80562992 -4.0710529 14.41579863 -4 12 C-4 11.01 -4 10.02 -4 9 C-4 8.01 -4 7.02 -4 6 C-3.01 5.34 -2.02 4.68 -1 4 C-0.27617533 1.94074861 -0.27617533 1.94074861 0 0 Z " fill="#00100C" transform="translate(355,978)"/>
<path d="M0 0 C0.33 1.32 0.66 2.64 1 4 C1.66 4 2.32 4 3 4 C4.04002369 7.12007108 4.1291213 9.31395606 4.1328125 12.5859375 C4.13474609 14.22949219 4.13474609 14.22949219 4.13671875 15.90625 C4.13285156 17.0509375 4.12898438 18.195625 4.125 19.375 C4.12886719 20.51195312 4.13273437 21.64890625 4.13671875 22.8203125 C4.13542969 23.91859375 4.13414062 25.016875 4.1328125 26.1484375 C4.13168457 27.15052246 4.13055664 28.15260742 4.12939453 29.18505859 C4.00463002 31.89927531 3.54816221 34.34521735 3 37 C2.92463789 38.47369382 2.89172806 39.95019993 2.90234375 41.42578125 C2.90556641 42.22177734 2.90878906 43.01777344 2.91210938 43.83789062 C2.92048828 44.65451172 2.92886719 45.47113281 2.9375 46.3125 C2.94201172 47.14845703 2.94652344 47.98441406 2.95117188 48.84570312 C2.96289452 50.89716649 2.98082797 52.94859273 3 55 C1.02 55.495 1.02 55.495 -1 56 C-1 49.07 -1 42.14 -1 35 C-1.99 34.67 -2.98 34.34 -4 34 C-3.34 33.34 -2.68 32.68 -2 32 C-3.32 30.35 -4.64 28.7 -6 27 C-5.34 26.34 -4.68 25.68 -4 25 C-3.87940746 22.40284845 -3.86037289 19.90443848 -3.9375 17.3125 C-4.06758 12.11411763 -4.13818509 7.11218728 -3 2 C-2.01 1.34 -1.02 0.68 0 0 Z " fill="#001F15" transform="translate(355,394)"/>
<path d="M0 0 C0.66 0.66 1.32 1.32 2 2 C1.625 4.625 1.625 4.625 1 7 C1.61875 7.0825 2.2375 7.165 2.875 7.25 C5 8 5 8 6.12890625 9.53515625 C7.37663237 13.06571759 7.17075139 16.4971118 7.0625 20.1875 C7.00087585 22.79625588 6.9793521 25.38951572 7 28 C7.33 28.33 7.66 28.66 8 29 C8.15215174 31.28812814 8.22186492 33.58199128 8.25 35.875 C8.28867187 37.75832031 8.28867187 37.75832031 8.328125 39.6796875 C8 43 8 43 6.484375 44.9453125 C5.74960937 45.46738281 5.74960937 45.46738281 5 46 C4.71125 45.071875 4.4225 44.14375 4.125 43.1875 C3.1125 39.90208333 3.1125 39.90208333 1 37 C1 36.01 1 35.02 1 34 C0.51144531 33.22140625 0.02289063 32.4428125 -0.48046875 31.640625 C-2.79690982 26.0906942 -2.39367805 20.69872779 -2.3125 14.75 C-2.31572266 13.55375 -2.31894531 12.3575 -2.32226562 11.125 C-2.2671546 2.2671546 -2.2671546 2.2671546 0 0 Z M6 29 C7 31 7 31 7 31 Z " fill="#00100A" transform="translate(351,654)"/>
<path d="M0 0 C0.33 0 0.66 0 1 0 C1 28.71 1 57.42 1 87 C0.67 86.01 0.34 85.02 0 84 C-0.66 84 -1.32 84 -2 84 C-4.79206982 79.81189528 -4.38432582 76.07024516 -4.55859375 71.12890625 C-5.03450527 67.75540958 -5.94751188 66.60134288 -8 64 C-7.67 63.01 -7.34 62.02 -7 61 C-6.34 61 -5.68 61 -5 61 C-5.226875 60.46375 -5.45375 59.9275 -5.6875 59.375 C-6.14543005 55.89473165 -4.76742431 53.94570718 -3 51 C-2.01 50.505 -2.01 50.505 -1 50 C-1.00222061 49.41784225 -1.00444122 48.83568451 -1.00672913 48.23588562 C-1.02882582 42.18533948 -1.04392499 36.13480478 -1.05493164 30.08422852 C-1.05996526 27.8251092 -1.06679262 25.56599314 -1.07543945 23.30688477 C-1.08754745 20.06265457 -1.09323799 16.81846739 -1.09765625 13.57421875 C-1.10281754 12.56163498 -1.10797882 11.54905121 -1.11329651 10.50578308 C-1.11337204 9.56503433 -1.11344757 8.62428558 -1.11352539 7.6550293 C-1.115746 6.82674118 -1.11796661 5.99845306 -1.12025452 5.14506531 C-1 3 -1 3 0 0 Z " fill="#000D0D" transform="translate(358,314)"/>
<path d="M0 0 C1.32 0.33 2.64 0.66 4 1 C4.02934144 4.97915085 4.04691265 8.95827337 4.0625 12.9375 C4.07087891 14.05447266 4.07925781 15.17144531 4.08789062 16.32226562 C4.10638446 22.62866234 4.02162954 28.76805978 3 35 C0.9375 37.0625 0.9375 37.0625 -1 38 C-1.495 36.515 -1.495 36.515 -2 35 C-2.66 34.67 -3.32 34.34 -4 34 C-2.68 33.34 -1.36 32.68 0 32 C-0.350625 31.38125 -0.70125 30.7625 -1.0625 30.125 C-1.5265625 29.073125 -1.5265625 29.073125 -2 28 C-1.67 27.34 -1.34 26.68 -1 26 C-0.7724985 24.12943209 -0.59037189 22.25314042 -0.4375 20.375 C-0.31181641 18.87066406 -0.31181641 18.87066406 -0.18359375 17.3359375 C-0.12300781 16.56507812 -0.06242187 15.79421875 0 15 C-0.99 14.67 -1.98 14.34 -3 14 C-2.5359375 12.7625 -2.5359375 12.7625 -2.0625 11.5 C-0.88122417 7.60873845 -0.41775832 4.03833047 0 0 Z " fill="#00100B" transform="translate(355,1176)"/>
<path d="M0 0 C1.794375 0.2165625 1.794375 0.2165625 3.625 0.4375 C4.73875 0.623125 5.8525 0.80875 7 1 C8.4783226 3.95664519 8.06032783 6.74229737 8 10 C5.27495796 10.94328378 3.83657078 10.96998239 0.9375 10.4375 C-2.18251805 9.63690947 -2.18251805 9.63690947 -5 12 C-7 10 -7 10 -7.1953125 7.8359375 C-7.17210937 7.02382813 -7.14890625 6.21171875 -7.125 5.375 C-7.10695313 4.55773437 -7.08890625 3.74046875 -7.0703125 2.8984375 C-7.04710937 2.27195312 -7.02390625 1.64546875 -7 1 C-3.375 -1.125 -3.375 -1.125 0 0 Z " fill="#001817" transform="translate(988,503)"/>
<path d="M0 0 C0.66 0.66 1.32 1.32 2 2 C1.625 4.625 1.625 4.625 1 7 C1.61875 7.0825 2.2375 7.165 2.875 7.25 C5 8 5 8 6.11328125 9.515625 C7.40685103 13.13989979 7.32862683 16.70051921 7.3125 20.5 C7.32861328 21.25925781 7.34472656 22.01851562 7.36132812 22.80078125 C7.36432658 26.2250162 7.26357017 28.56094224 5.48046875 31.53125 C4.74763672 32.25828125 4.74763672 32.25828125 4 33 C1 29.375 1 29.375 1 26 C1.33 25.01 1.66 24.02 2 23 C2.15811388 19.94729537 2.15811388 19.94729537 1 17 C1.33 16.34 1.66 15.68 2 15 C2 13.68 2 12.36 2 11 C1.34 11 0.68 11 0 11 C0 12.65 0 14.3 0 16 C-0.66 15.67 -1.32 15.34 -2 15 C-2.05386629 12.87527424 -2.09273071 10.75016348 -2.125 8.625 C-2.14820313 7.44164062 -2.17140625 6.25828125 -2.1953125 5.0390625 C-2 2 -2 2 0 0 Z " fill="#001B10" transform="translate(351,654)"/>
<path d="M0 0 C1 1 1 1 1.09765625 3.06640625 C1.08605469 3.89011719 1.07445312 4.71382812 1.0625 5.5625 C1.05347656 6.38878906 1.04445313 7.21507812 1.03515625 8.06640625 C1.02355469 8.70449219 1.01195312 9.34257813 1 10 C-0.32 10 -1.64 10 -3 10 C-3 9.34 -3 8.68 -3 8 C-5.0745356 6.7763932 -5.0745356 6.7763932 -8 7 C-9.69719127 7.94726954 -11.36935236 8.94228261 -13 10 C-14.80411967 7.24075815 -15.0127245 6.11027897 -14.625 2.75 C-14.41875 1.8425 -14.2125 0.935 -14 0 C-8.54136383 -2.00521329 -5.62867848 -2.13889782 0 0 Z " fill="#032722" transform="translate(1077,655)"/>
<path d="M0 0 C0.12375 0.61875 0.2475 1.2375 0.375 1.875 C0.87197356 4.19120832 0.87197356 4.19120832 3 6 C3.66 6 4.32 6 5 6 C5.33 7.32 5.66 8.64 6 10 C3.36005703 12.63994297 1.43966299 13.22395215 -2.1875 13.25 C-6 13 -6 13 -7 12 C-7.14115161 9.32941149 -7.04247107 6.67567762 -7 4 C-4.69 2.68 -2.38 1.36 0 0 Z " fill="#00120E" transform="translate(995,514)"/>
<path d="M0 0 C1.32 0 2.64 0 4 0 C4 0.66 4 1.32 4 2 C5.98 2 7.96 2 10 2 C10 4.31 10 6.62 10 9 C9.01 9 8.02 9 7 9 C5.66158328 9.31229724 4.32860925 9.64830932 3 10 C-1.77777778 11 -1.77777778 11 -3 11 C-3.29296875 4.9453125 -3.29296875 4.9453125 -3 3 C-2.01 2.34 -1.02 1.68 0 1 C0 0.67 0 0.34 0 0 Z " fill="#00271B" transform="translate(1074,666)"/>
<path d="M0 0 C2.97 0.99 5.94 1.98 9 3 C8.01 3.495 8.01 3.495 7 4 C7.99 5.485 7.99 5.485 9 7 C9.45375 6.54625 9.9075 6.0925 10.375 5.625 C11.58333333 4.41666667 12.79166667 3.20833333 14 2 C14.04241723 4.33294775 14.04092937 6.66702567 14 9 C13 10 13 10 11.07421875 10.1328125 C10.28660156 10.13023437 9.49898437 10.12765625 8.6875 10.125 C7.90761719 10.12757813 7.12773438 10.13015625 6.32421875 10.1328125 C4 10 4 10 0 9 C0 6.03 0 3.06 0 0 Z " fill="#001514" transform="translate(1057,219)"/>
<path d="M0 0 C1.32 0 2.64 0 4 0 C5.33333333 1.66666667 6.66666667 3.33333333 8 5 C9.32 5 10.64 5 12 5 C11.01 6.485 11.01 6.485 10 8 C9.34 8 8.68 8 8 8 C7.67 8.66 7.34 9.32 7 10 C4.125 10.125 4.125 10.125 1 10 C0.34 9.34 -0.32 8.68 -1 8 C-0.96712417 5.27130593 -0.43602229 2.7033382 0 0 Z " fill="#001614" transform="translate(1064,205)"/>
<path d="M0 0 C0.33 0 0.66 0 1 0 C1.08706892 3.27066566 1.14041241 6.54103365 1.1875 9.8125 C1.22520508 11.2056543 1.22520508 11.2056543 1.26367188 12.62695312 C1.27333984 13.51962891 1.28300781 14.41230469 1.29296875 15.33203125 C1.3086792 16.15421143 1.32438965 16.9763916 1.34057617 17.82348633 C0.92566921 20.47502434 0.04470249 21.33263592 -2 23 C-3.16979059 18.71076783 -2.6225968 15.35817759 -2 11 C-2.185625 10.113125 -2.37125 9.22625 -2.5625 8.3125 C-3.10198635 5.4609293 -2.50211731 4.42007789 -1 2 C-0.67 1.34 -0.34 0.68 0 0 Z " fill="#000D0D" transform="translate(358,621)"/>
<path d="M0 0 C1.65 0 3.3 0 5 0 C5 0.66 5 1.32 5 2 C6.65 2.33 8.3 2.66 10 3 C9.01 4.98 8.02 6.96 7 9 C3.28400809 9.20086443 2.22791555 9.1519437 -1 7 C-0.67 4.69 -0.34 2.38 0 0 Z " fill="#001414" transform="translate(1071,192)"/>
<path d="M0 0 C0.33 0 0.66 0 1 0 C1.33 2.64 1.66 5.28 2 8 C5.34373475 7.44271087 8.03312999 6.64826111 11 5 C11.99 6.32 12.98 7.64 14 9 C13.34 10.32 12.68 11.64 12 13 C9.97448078 12.49362019 7.95188677 11.98687821 5.9375 11.4375 C3.84332634 10.88986956 3.84332634 10.88986956 1 11 C-0.98362069 8.08291076 -0.9876191 6.87619096 -0.625 3.25 C-0.41875 2.1775 -0.2125 1.105 0 0 Z " fill="#00140E" transform="translate(1070,668)"/>
<path d="M0 0 C0 2.97 0 5.94 0 9 C-1.32 9 -2.64 9 -4 9 C-4 8.34 -4 7.68 -4 7 C-4.66 6.67 -5.32 6.34 -6 6 C-6.73075648 3.6859378 -7.40138258 1.35171131 -8 -1 C-4.23350139 -2.34517808 -3.97399267 -1.98699633 0 0 Z " fill="#001515" transform="translate(1078,656)"/>
<path d="M0 0 C0.66 0.66 1.32 1.32 2 2 C2.66 2 3.32 2 4 2 C4.33 3.32 4.66 4.64 5 6 C4.2575 5.79375 3.515 5.5875 2.75 5.375 C-0.39116506 4.94665931 -1.31879156 5.48064855 -4 7 C-4.99 7 -5.98 7 -7 7 C-7 5.02 -7 3.04 -7 1 C-4.48718205 -0.25640898 -2.78302919 -0.20872719 0 0 Z " fill="#001B13" transform="translate(996,518)"/>
<path d="M0 0 C0.33 1.65 0.66 3.3 1 5 C0.01 4.67 -0.98 4.34 -2 4 C-5.11785113 4.64644661 -5.11785113 4.64644661 -6 7 C-6 5.02 -6 3.04 -6 1 C-4 0 -4 0 0 0 Z " fill="#00120F" transform="translate(351,135)"/>
<path d="M0 0 C2 1 2 1 4 4 C4 4.99 4 5.98 4 7 C2.35 7 0.7 7 -1 7 C-1.04254356 5.00045254 -1.04080783 2.99958364 -1 1 C-0.67 0.67 -0.34 0.34 0 0 Z " fill="#042C26" transform="translate(1072,668)"/>
<path d="M0 0 C5.875 2.75 5.875 2.75 7 5 C6.34 5.66 5.68 6.32 5 7 C2.37812506 5.95125002 1.20628639 5.35068687 -0.25 2.875 C-0.4975 2.25625 -0.745 1.6375 -1 1 C-0.67 0.67 -0.34 0.34 0 0 Z " fill="#000F09" transform="translate(1063,648)"/>
<path d="M0 0 C0.99 0 1.98 0 3 0 C4.6875 2.5 4.6875 2.5 6 5 C5.01 5 4.02 5 3 5 C1.31201173 6.43750191 1.31201173 6.43750191 0 8 C0 5.36 0 2.72 0 0 Z " fill="#00140D" transform="translate(352,726)"/>
<path d="M0 0 C1.32 0.33 2.64 0.66 4 1 C3.47731534 3.76276177 2.89130413 6.3260876 2 9 C1.34 8.67 0.68 8.34 0 8 C0 5.36 0 2.72 0 0 Z " fill="#00140B" transform="translate(355,1176)"/>
<path d="M0 0 C0.66 1.32 1.32 2.64 2 4 C1 5 1 5 -2.0625 5.0625 C-3.5165625 5.0315625 -3.5165625 5.0315625 -5 5 C-5 3.68 -5 2.36 -5 1 C-3.68 1 -2.36 1 -1 1 C-0.67 0.67 -0.34 0.34 0 0 Z " fill="#00110B" transform="translate(1055,636)"/>
<path d="M0 0 C1.9375 0.8125 1.9375 0.8125 4 2 C4.33 2.99 4.66 3.98 5 5 C3.35 5.33 1.7 5.66 0 6 C0 4.02 0 2.04 0 0 Z " fill="#00231D" transform="translate(989,519)"/>
<path d="M0 0 C1.32 0.99 2.64 1.98 4 3 C3.67 3.99 3.34 4.98 3 6 C2.01 6 1.02 6 0 6 C0 5.34 0 4.68 0 4 C-0.66 3.67 -1.32 3.34 -2 3 C-1.34 2.01 -0.68 1.02 0 0 Z " fill="#00221F" transform="translate(1074,659)"/>
<path d="M0 0 C0.99 0.495 0.99 0.495 2 1 C1.67 3.31 1.34 5.62 1 8 C2.98 8.495 2.98 8.495 5 9 C4.01 9.66 3.02 10.32 2 11 C0 9 0 9 -0.1953125 6.8359375 C-0.17210937 6.02382813 -0.14890625 5.21171875 -0.125 4.375 C-0.10695313 3.55773437 -0.08890625 2.74046875 -0.0703125 1.8984375 C-0.04710937 1.27195312 -0.02390625 0.64546875 0 0 Z " fill="#001211" transform="translate(981,504)"/>
</svg>
