<?xml version="1.0" encoding="UTF-8"?>
<svg version="1.1" xmlns="http://www.w3.org/2000/svg" width="1280" height="1280">
<path d="M0 0 C7.28421548 -0.02312916 14.5684231 -0.04091801 21.85266781 -0.05181217 C25.23471813 -0.05703975 28.6167434 -0.06413511 31.9987793 -0.07543945 C35.88329777 -0.08834267 39.76780597 -0.09322924 43.65234375 -0.09765625 C44.87211411 -0.10281754 46.09188446 -0.10797882 47.34861755 -0.11329651 C49.03024742 -0.11340981 49.03024742 -0.11340981 50.74584961 -0.11352539 C51.73846298 -0.115746 52.73107635 -0.11796661 53.75376892 -0.12025452 C56 0 56 0 57 1 C57.04080783 2.99958364 57.04254356 5.00045254 57 7 C58.39025391 6.98259766 58.39025391 6.98259766 59.80859375 6.96484375 C61.00613281 6.95582031 62.20367188 6.94679688 63.4375 6.9375 C64.63246094 6.92589844 65.82742188 6.91429687 67.05859375 6.90234375 C70 7 70 7 71 8 C71.04080783 9.99958364 71.04254356 12.00045254 71 14 C71.969375 13.979375 72.93875 13.95875 73.9375 13.9375 C77 14 77 14 78 15 C78.04080783 16.99958364 78.04254356 19.00045254 78 21 C79.4540625 20.9690625 79.4540625 20.9690625 80.9375 20.9375 C84 21 84 21 85 22 C85.07258946 24.18639453 85.08373783 26.37500389 85.0625 28.5625 C85.05347656 29.76003906 85.04445313 30.95757812 85.03515625 32.19140625 C85.01775391 33.58166016 85.01775391 33.58166016 85 35 C85.969375 34.979375 86.93875 34.95875 87.9375 34.9375 C91 35 91 35 92 36 C92.08847743 38.52094076 92.11527301 41.01430893 92.09765625 43.53515625 C92.0962413 44.28840683 92.09482635 45.04165741 92.09336853 45.81773376 C92.08775376 48.2326956 92.07519883 50.64756601 92.0625 53.0625 C92.0574869 54.69596221 92.05292366 56.32942586 92.04882812 57.96289062 C92.03777954 61.97529585 92.02050506 65.98763241 92 70 C92.969375 69.979375 93.93875 69.95875 94.9375 69.9375 C98 70 98 70 99 71 C99.08871273 74.02977804 99.1151935 77.03667022 99.09765625 80.06640625 C99.0962413 80.97502914 99.09482635 81.88365204 99.09336853 82.81980896 C99.08775193 85.73407221 99.07519665 88.64825981 99.0625 91.5625 C99.05748714 93.53320202 99.05292386 95.50390524 99.04882812 97.47460938 C99.03777711 102.31643559 99.02050138 107.15820495 99 112 C99.969375 111.979375 100.93875 111.95875 101.9375 111.9375 C105 112 105 112 106 113 C106.08847743 115.52094076 106.11527301 118.01430893 106.09765625 120.53515625 C106.0962413 121.28840683 106.09482635 122.04165741 106.09336853 122.81773376 C106.08775376 125.2326956 106.07519883 127.64756601 106.0625 130.0625 C106.0574869 131.69596221 106.05292366 133.32942586 106.04882812 134.96289062 C106.03777954 138.97529585 106.02050506 142.98763241 106 147 C106.77714355 146.99476318 107.55428711 146.98952637 108.35498047 146.98413086 C111.86164549 146.96339844 115.36829763 146.95035179 118.875 146.9375 C120.09832031 146.92912109 121.32164062 146.92074219 122.58203125 146.91210938 C124.33193359 146.90727539 124.33193359 146.90727539 126.1171875 146.90234375 C127.19597168 146.89710693 128.27475586 146.89187012 129.38623047 146.88647461 C132 147 132 147 134 148 C134 149.98 134 151.96 134 154 C134.74161377 153.99476318 135.48322754 153.98952637 136.24731445 153.98413086 C139.60236771 153.96336386 142.95740744 153.9503407 146.3125 153.9375 C147.47974609 153.92912109 148.64699219 153.92074219 149.84960938 153.91210938 C151.52700195 153.90727539 151.52700195 153.90727539 153.23828125 153.90234375 C154.26993408 153.89710693 155.30158691 153.89187012 156.36450195 153.88647461 C159 154 159 154 162 155 C162 156.98 162 158.96 162 161 C163.26457031 160.98839844 164.52914062 160.97679687 165.83203125 160.96484375 C167.49218602 160.95546434 169.15234239 160.9463643 170.8125 160.9375 C171.64587891 160.92912109 172.47925781 160.92074219 173.33789062 160.91210938 C174.54155273 160.90727539 174.54155273 160.90727539 175.76953125 160.90234375 C176.50792236 160.89710693 177.24631348 160.89187012 178.00708008 160.88647461 C180 161 180 161 183 162 C183 163.98 183 165.96 183 168 C184.18078125 167.98839844 185.3615625 167.97679687 186.578125 167.96484375 C188.13541508 167.95546248 189.69270688 167.94636264 191.25 167.9375 C192.02730469 167.92912109 192.80460938 167.92074219 193.60546875 167.91210938 C194.35957031 167.90888672 195.11367188 167.90566406 195.890625 167.90234375 C196.58188477 167.89710693 197.27314453 167.89187012 197.98535156 167.88647461 C200.09973898 168.00562029 201.96641515 168.42381763 204 169 C204 170.98 204 172.96 204 175 C208.62 175.33 213.24 175.66 218 176 C218 178.31 218 180.62 218 183 C222.62 183 227.24 183 232 183 C232.33 184.98 232.66 186.96 233 189 C237.29 189.33 241.58 189.66 246 190 C246.33 192.31 246.66 194.62 247 197 C251.29 197 255.58 197 260 197 C260.33 199.31 260.66 201.62 261 204 C262.39025391 203.98259766 262.39025391 203.98259766 263.80859375 203.96484375 C265.00613281 203.95582031 266.20367188 203.94679687 267.4375 203.9375 C268.63246094 203.92589844 269.82742188 203.91429687 271.05859375 203.90234375 C274 204 274 204 275 205 C275.04080783 206.99958364 275.04254356 209.00045254 275 211 C276.4540625 210.9690625 276.4540625 210.9690625 277.9375 210.9375 C281 211 281 211 282 212 C282.04080783 213.99958364 282.04254356 216.00045254 282 218 C283.4540625 217.9690625 283.4540625 217.9690625 284.9375 217.9375 C288 218 288 218 289 219 C289.04080783 220.99958364 289.04254356 223.00045254 289 225 C290.39025391 224.98259766 290.39025391 224.98259766 291.80859375 224.96484375 C293.00613281 224.95582031 294.20367188 224.94679687 295.4375 224.9375 C296.63246094 224.92589844 297.82742188 224.91429687 299.05859375 224.90234375 C302 225 302 225 303 226 C303 227.98 303 229.96 303 232 C307.29 232 311.58 232 316 232 C316 230.02 316 228.04 316 226 C317 225 317 225 320.0625 224.9375 C321.031875 224.958125 322.00125 224.97875 323 225 C322.979375 224.030625 322.95875 223.06125 322.9375 222.0625 C323 219 323 219 324 218 C325.99958364 217.95919217 328.00045254 217.95745644 330 218 C329.979375 217.030625 329.95875 216.06125 329.9375 215.0625 C330 212 330 212 331 211 C332.99958364 210.95919217 335.00045254 210.95745644 337 211 C337.33 208.69 337.66 206.38 338 204 C339.98 204 341.96 204 344 204 C344.33 201.69 344.66 199.38 345 197 C349.29 197 353.58 197 358 197 C358.33 194.69 358.66 192.38 359 190 C360.98 190 362.96 190 365 190 C365.33 187.69 365.66 185.38 366 183 C370.29 183 374.58 183 379 183 C379.33 180.69 379.66 178.38 380 176 C382.31 175.67 384.62 175.34 387 175 C387 173.35 387 171.7 387 170 C391.41029783 167.79050168 395.48940324 167.7629352 400.3125 167.875 C401.05306641 167.88402344 401.79363281 167.89304688 402.55664062 167.90234375 C404.37123467 167.92575787 406.18566071 167.96162385 408 168 C408 166.35 408 164.7 408 163 C411.51120508 160.83624868 414.32940899 160.75473227 418.41015625 160.76953125 C420.26543945 160.77243164 420.26543945 160.77243164 422.15820312 160.77539062 C424.09083008 160.79375977 424.09083008 160.79375977 426.0625 160.8125 C427.35478516 160.81314453 428.64707031 160.81378906 429.97851562 160.81445312 C439.57857143 160.85952381 439.57857143 160.85952381 443 162 C443 163.98 443 165.96 443 168 C443.67546875 167.98839844 444.3509375 167.97679687 445.046875 167.96484375 C445.93890625 167.95582031 446.8309375 167.94679687 447.75 167.9375 C448.63171875 167.92589844 449.5134375 167.91429687 450.421875 167.90234375 C452.7818838 167.99173802 454.74498524 168.33087179 457 169 C457.33 170.98 457.66 172.96 458 175 C462.29 175.33 466.58 175.66 471 176 C471.33 178.31 471.66 180.62 472 183 C472.969375 182.979375 473.93875 182.95875 474.9375 182.9375 C478 183 478 183 479 184 C479.07258946 186.18639453 479.08373783 188.37500389 479.0625 190.5625 C479.05347656 191.76003906 479.04445313 192.95757812 479.03515625 194.19140625 C479.02355469 195.11824219 479.01195312 196.04507813 479 197 C479.969375 196.979375 480.93875 196.95875 481.9375 196.9375 C485 197 485 197 486 198 C486.07258946 200.18639453 486.08373783 202.37500389 486.0625 204.5625 C486.05347656 205.76003906 486.04445313 206.95757812 486.03515625 208.19140625 C486.02355469 209.11824219 486.01195312 210.04507813 486 211 C486.969375 210.979375 487.93875 210.95875 488.9375 210.9375 C492 211 492 211 493 212 C493.11349161 214.86094217 493.16418492 217.69683456 493.16796875 220.55859375 C493.17129715 221.41808121 493.17462555 222.27756866 493.17805481 223.1631012 C493.1831277 224.98478661 493.18546302 226.80648136 493.18530273 228.62817383 C493.18748803 231.4221929 493.20563644 234.21581657 493.22460938 237.00976562 C493.2275434 238.77604031 493.22952814 240.54231688 493.23046875 242.30859375 C493.24124702 243.5680204 493.24124702 243.5680204 493.25224304 244.85289001 C493.22882181 250.77117819 493.22882181 250.77117819 491 253 C488.375 253.125 488.375 253.125 486 253 C486.01160156 253.84304688 486.02320313 254.68609375 486.03515625 255.5546875 C486.04869141 257.19824219 486.04869141 257.19824219 486.0625 258.875 C486.07410156 259.96554687 486.08570313 261.05609375 486.09765625 262.1796875 C486 265 486 265 485 267 C483.02 267 481.04 267 479 267 C479.01160156 267.84304688 479.02320313 268.68609375 479.03515625 269.5546875 C479.04869141 271.19824219 479.04869141 271.19824219 479.0625 272.875 C479.07410156 273.96554687 479.08570313 275.05609375 479.09765625 276.1796875 C479 279 479 279 478 281 C476.02 281 474.04 281 472 281 C471.67 283.31 471.34 285.62 471 288 C469.02 288 467.04 288 465 288 C465.01160156 288.75925781 465.02320313 289.51851563 465.03515625 290.30078125 C465.04869141 291.79158203 465.04869141 291.79158203 465.0625 293.3125 C465.07410156 294.29863281 465.08570313 295.28476562 465.09765625 296.30078125 C465 299 465 299 464 302 C462.02 302 460.04 302 458 302 C457.67 304.31 457.34 306.62 457 309 C455.02 309 453.04 309 451 309 C450.67 311.31 450.34 313.62 450 316 C448.02 316 446.04 316 444 316 C443.67 320.62 443.34 325.24 443 330 C440.69 330 438.38 330 436 330 C436 332.31 436 334.62 436 337 C433.69 337 431.38 337 429 337 C429 343.93 429 350.86 429 358 C431.31 358.33 433.62 358.66 436 359 C436 363.29 436 367.58 436 372 C438.31 372.33 440.62 372.66 443 373 C443.33 374.98 443.66 376.96 444 379 C445.98 379.33 447.96 379.66 450 380 C450.93619813 383.15506142 451.1057123 385.96586502 451.0625 389.25 C451.05347656 390.14203125 451.04445313 391.0340625 451.03515625 391.953125 C451.02355469 392.62859375 451.01195312 393.3040625 451 394 C452.98 394 454.96 394 457 394 C458.04976964 397.14930893 458.10131595 399.38814456 458.0625 402.6875 C458.05347656 403.68136719 458.04445313 404.67523438 458.03515625 405.69921875 C458.02355469 406.45847656 458.01195312 407.21773438 458 408 C459.98 408 461.96 408 464 408 C465.38226016 410.76452033 465.09525387 413.0461363 465.0625 416.125 C465.05347656 417.22070312 465.04445313 418.31640625 465.03515625 419.4453125 C465.02355469 420.28835938 465.01195312 421.13140625 465 422 C466.98 422 468.96 422 471 422 C472.38226016 424.76452033 472.09525387 427.0461363 472.0625 430.125 C472.05347656 431.22070312 472.04445313 432.31640625 472.03515625 433.4453125 C472.02355469 434.28835938 472.01195312 435.13140625 472 436 C473.98 436 475.96 436 478 436 C479.17426264 438.34852528 479.11508173 439.73774065 479.09765625 442.3515625 C479.09282227 443.62773438 479.09282227 443.62773438 479.08789062 444.9296875 C479.07951172 445.81914062 479.07113281 446.70859375 479.0625 447.625 C479.05798828 448.5221875 479.05347656 449.419375 479.04882812 450.34375 C479.03702591 452.56256648 479.02056155 454.78125018 479 457 C479.969375 456.979375 480.93875 456.95875 481.9375 456.9375 C485 457 485 457 486 458 C486.08669432 459.4887186 486.10703494 460.981445 486.09765625 462.47265625 C486.09282227 463.82133789 486.09282227 463.82133789 486.08789062 465.19726562 C486.07951172 466.14279297 486.07113281 467.08832031 486.0625 468.0625 C486.05798828 469.01189453 486.05347656 469.96128906 486.04882812 470.93945312 C486.0370011 473.29303065 486.02052025 475.64648477 486 478 C486.969375 477.979375 487.93875 477.95875 488.9375 477.9375 C492 478 492 478 493 479 C493.08669432 480.4887186 493.10703494 481.981445 493.09765625 483.47265625 C493.09282227 484.82133789 493.09282227 484.82133789 493.08789062 486.19726562 C493.07951172 487.14279297 493.07113281 488.08832031 493.0625 489.0625 C493.05798828 490.01189453 493.05347656 490.96128906 493.04882812 491.93945312 C493.0370011 494.29303065 493.02052025 496.64648477 493 499 C493.969375 498.979375 494.93875 498.95875 495.9375 498.9375 C499 499 499 499 500 500 C500.08758003 501.99964982 500.10696576 504.0023611 500.09765625 506.00390625 C500.09443359 507.21884766 500.09121094 508.43378906 500.08789062 509.68554688 C500.07951172 510.96494141 500.07113281 512.24433594 500.0625 513.5625 C500.05798828 514.84576172 500.05347656 516.12902344 500.04882812 517.45117188 C500.03699545 520.63416022 500.02051068 523.81705762 500 527 C500.969375 526.979375 501.93875 526.95875 502.9375 526.9375 C506 527 506 527 507 528 C507.04080783 529.99958364 507.04254356 532.00045254 507 534 C507.60062256 533.99476318 508.20124512 533.98952637 508.82006836 533.98413086 C511.52586838 533.96341986 514.23165177 533.95035875 516.9375 533.9375 C517.88302734 533.92912109 518.82855469 533.92074219 519.80273438 533.91210938 C520.70185547 533.90888672 521.60097656 533.90566406 522.52734375 533.90234375 C523.35999756 533.89710693 524.19265137 533.89187012 525.05053711 533.88647461 C527 534 527 534 528 535 C528.04080783 536.99958364 528.04254356 539.00045254 528 541 C529.2367749 540.99476318 530.4735498 540.98952637 531.74780273 540.98413086 C536.31924725 540.96608439 540.89068859 540.95456929 545.4621582 540.94506836 C547.44393441 540.94002733 549.42570689 540.93319462 551.4074707 540.92456055 C554.24952109 540.91248485 557.09152247 540.90676955 559.93359375 540.90234375 C560.82525742 540.89718246 561.71692108 540.89202118 562.63560486 540.88670349 C564.75740601 540.88650823 566.8791078 540.9378997 569 541 C570 542 570 542 570.0625 545.0625 C570.041875 546.031875 570.02125 547.00125 570 548 C571.02472412 547.99476318 572.04944824 547.98952637 573.10522461 547.98413086 C576.89395276 547.96608031 580.68267709 547.9545678 584.47143555 547.94506836 C586.11369464 547.94002826 587.75594923 547.93319622 589.39819336 547.92456055 C591.75375479 547.91248074 594.10925709 547.90676861 596.46484375 547.90234375 C597.20339096 547.89718246 597.94193817 547.89202118 598.7028656 547.88670349 C600.46898088 547.8865075 602.23497146 547.93805281 604 548 C605 549 605 549 605.0625 552.0625 C605.041875 553.031875 605.02125 554.00125 605 555 C605.92683594 554.98839844 606.85367187 554.97679687 607.80859375 554.96484375 C609.60490234 554.95130859 609.60490234 554.95130859 611.4375 554.9375 C612.63246094 554.92589844 613.82742188 554.91429687 615.05859375 554.90234375 C618 555 618 555 619 556 C619.04080783 557.99958364 619.04254356 560.00045254 619 562 C619.969375 561.979375 620.93875 561.95875 621.9375 561.9375 C625 562 625 562 626 563 C626.04080783 564.99958364 626.04254356 567.00045254 626 569 C626.969375 568.979375 627.93875 568.95875 628.9375 568.9375 C632 569 632 569 633 570 C633.04080783 571.99958364 633.04254356 574.00045254 633 576 C633.969375 575.979375 634.93875 575.95875 635.9375 575.9375 C639 576 639 576 640 577 C640.04080783 578.99958364 640.04254356 581.00045254 640 583 C642.31 583.33 644.62 583.66 647 584 C647 606.77 647 629.54 647 653 C644.69 653.33 642.38 653.66 640 654 C640.01160156 654.92683594 640.02320313 655.85367188 640.03515625 656.80859375 C640.04869141 658.60490234 640.04869141 658.60490234 640.0625 660.4375 C640.07410156 661.63246094 640.08570313 662.82742188 640.09765625 664.05859375 C640 667 640 667 639 668 C637.00041636 668.04080783 634.99954746 668.04254356 633 668 C633.020625 668.969375 633.04125 669.93875 633.0625 670.9375 C633 674 633 674 632 675 C629.81360547 675.07258946 627.62499611 675.08373783 625.4375 675.0625 C624.23996094 675.05347656 623.04242187 675.04445313 621.80859375 675.03515625 C620.88175781 675.02355469 619.95492188 675.01195312 619 675 C619.020625 675.969375 619.04125 676.93875 619.0625 677.9375 C619 681 619 681 618 682 C616.5112814 682.08669432 615.018555 682.10703494 613.52734375 682.09765625 C612.62822266 682.09443359 611.72910156 682.09121094 610.80273438 682.08789062 C609.85720703 682.07951172 608.91167969 682.07113281 607.9375 682.0625 C606.98810547 682.05798828 606.03871094 682.05347656 605.06054688 682.04882812 C602.70696935 682.0370011 600.35351523 682.02052025 598 682 C598.020625 682.969375 598.04125 683.93875 598.0625 684.9375 C598 688 598 688 597 689 C593.97022196 689.08871273 590.96332978 689.1151935 587.93359375 689.09765625 C587.02497086 689.0962413 586.11634796 689.09482635 585.18019104 689.09336853 C582.26592779 689.08775193 579.35174019 689.07519665 576.4375 689.0625 C574.46679798 689.05748714 572.49609476 689.05292386 570.52539062 689.04882812 C565.68356441 689.03777711 560.84179505 689.02050138 556 689 C556.020625 689.969375 556.04125 690.93875 556.0625 691.9375 C556 695 556 695 555 696 C552.47905924 696.08847743 549.98569107 696.11527301 547.46484375 696.09765625 C546.71159317 696.0962413 545.95834259 696.09482635 545.18226624 696.09336853 C542.7673044 696.08775376 540.35243399 696.07519883 537.9375 696.0625 C536.30403779 696.0574869 534.67057414 696.05292366 533.03710938 696.04882812 C529.02470415 696.03777954 525.01236759 696.02050506 521 696 C521.020625 696.969375 521.04125 697.93875 521.0625 698.9375 C521 702 521 702 520 703 C518.5112814 703.08669432 517.018555 703.10703494 515.52734375 703.09765625 C514.62822266 703.09443359 513.72910156 703.09121094 512.80273438 703.08789062 C511.85720703 703.07951172 510.91167969 703.07113281 509.9375 703.0625 C508.98810547 703.05798828 508.03871094 703.05347656 507.06054688 703.04882812 C504.70696935 703.0370011 502.35351523 703.02052025 500 703 C500.00523682 703.81267334 500.01047363 704.62534668 500.01586914 705.46264648 C500.03656994 709.12092322 500.04963803 712.77918767 500.0625 716.4375 C500.07087891 717.71689453 500.07925781 718.99628906 500.08789062 720.31445312 C500.09111328 721.52939453 500.09433594 722.74433594 500.09765625 723.99609375 C500.10289307 725.12200928 500.10812988 726.2479248 500.11352539 727.40795898 C500 730 500 730 499 731 C497.00041636 731.04080783 494.99954746 731.04254356 493 731 C493.00523682 731.81267334 493.01047363 732.62534668 493.01586914 733.46264648 C493.03656994 737.12092322 493.04963803 740.77918767 493.0625 744.4375 C493.07087891 745.71689453 493.07925781 746.99628906 493.08789062 748.31445312 C493.09111328 749.52939453 493.09433594 750.74433594 493.09765625 751.99609375 C493.10289307 753.12200928 493.10812988 754.2479248 493.11352539 755.40795898 C493 758 493 758 492 759 C490.00041636 759.04080783 487.99954746 759.04254356 486 759 C486.00523682 759.60062256 486.01047363 760.20124512 486.01586914 760.82006836 C486.03658014 763.52586838 486.04964125 766.23165177 486.0625 768.9375 C486.07087891 769.88302734 486.07925781 770.82855469 486.08789062 771.80273438 C486.09111328 772.70185547 486.09433594 773.60097656 486.09765625 774.52734375 C486.10289307 775.35999756 486.10812988 776.19265137 486.11352539 777.05053711 C486 779 486 779 485 780 C483.00041636 780.04080783 480.99954746 780.04254356 479 780 C479.01160156 780.84304688 479.02320313 781.68609375 479.03515625 782.5546875 C479.04869141 784.19824219 479.04869141 784.19824219 479.0625 785.875 C479.07410156 786.96554687 479.08570313 788.05609375 479.09765625 789.1796875 C479 792 479 792 478 794 C476.02 794 474.04 794 472 794 C472.00523682 794.56509277 472.01047363 795.13018555 472.01586914 795.71240234 C472.03662422 798.2665903 472.0496554 800.82076053 472.0625 803.375 C472.07087891 804.26445313 472.07925781 805.15390625 472.08789062 806.0703125 C472.09111328 806.92109375 472.09433594 807.771875 472.09765625 808.6484375 C472.10289307 809.43395996 472.10812988 810.21948242 472.11352539 811.02880859 C472 813 472 813 471 815 C469.02 815 467.04 815 465 815 C465.01160156 815.84304688 465.02320313 816.68609375 465.03515625 817.5546875 C465.04869141 819.19824219 465.04869141 819.19824219 465.0625 820.875 C465.07410156 821.96554687 465.08570313 823.05609375 465.09765625 824.1796875 C465 827 465 827 464 829 C462.02 829 460.04 829 458 829 C458.01160156 829.75925781 458.02320313 830.51851562 458.03515625 831.30078125 C458.04869141 832.79158203 458.04869141 832.79158203 458.0625 834.3125 C458.07410156 835.29863281 458.08570313 836.28476562 458.09765625 837.30078125 C458 840 458 840 457 843 C455.02 843 453.04 843 451 843 C451.01160156 843.67546875 451.02320313 844.3509375 451.03515625 845.046875 C451.04869141 846.38492187 451.04869141 846.38492187 451.0625 847.75 C451.07410156 848.63171875 451.08570313 849.5134375 451.09765625 850.421875 C451.00826198 852.7818838 450.66912821 854.74498524 450 857 C448.02 857.33 446.04 857.66 444 858 C443.34 860.31 442.68 862.62 442 865 C440.02 865 438.04 865 436 865 C436.01160156 865.92683594 436.02320313 866.85367188 436.03515625 867.80859375 C436.04869141 869.60490234 436.04869141 869.60490234 436.0625 871.4375 C436.07410156 872.63246094 436.08570313 873.82742188 436.09765625 875.05859375 C436 878 436 878 435 879 C433.02 879 431.04 879 429 879 C429 885.93 429 892.86 429 900 C431.31 900 433.62 900 436 900 C436 902.31 436 904.62 436 907 C438.31 907 440.62 907 443 907 C443.33 911.62 443.66 916.24 444 921 C445.98 921 447.96 921 450 921 C450.33 923.31 450.66 925.62 451 928 C452.98 928 454.96 928 457 928 C458.04976964 931.14930893 458.10131595 933.38814456 458.0625 936.6875 C458.05347656 937.68136719 458.04445313 938.67523437 458.03515625 939.69921875 C458.02355469 940.45847656 458.01195312 941.21773437 458 942 C459.98 942 461.96 942 464 942 C464.33 944.31 464.66 946.62 465 949 C466.98 949 468.96 949 471 949 C471.33 951.31 471.66 953.62 472 956 C473.98 956 475.96 956 478 956 C479.38226016 958.76452033 479.09525387 961.0461363 479.0625 964.125 C479.05347656 965.22070312 479.04445313 966.31640625 479.03515625 967.4453125 C479.02355469 968.28835938 479.01195312 969.13140625 479 970 C480.175625 969.938125 480.175625 969.938125 481.375 969.875 C484 970 484 970 486 972 C486.1953125 974.8203125 486.1953125 974.8203125 486.125 978.125 C486.10695313 979.22070312 486.08890625 980.31640625 486.0703125 981.4453125 C486.03550781 982.70988281 486.03550781 982.70988281 486 984 C487.175625 983.938125 487.175625 983.938125 488.375 983.875 C491 984 491 984 493 986 C493.24723816 987.9801178 493.24723816 987.9801178 493.24291992 990.43383789 C493.24599655 991.35141373 493.24907318 992.26898956 493.25224304 993.21437073 C493.24505753 994.20710495 493.23787201 995.19983917 493.23046875 996.22265625 C493.22978142 997.746381 493.22978142 997.746381 493.2290802 999.30088806 C493.22605596 1001.45035977 493.21816456 1003.59982925 493.20581055 1005.74926758 C493.18755624 1009.05232442 493.1853008 1012.35510112 493.18554688 1015.65820312 C493.18063179 1017.74218994 493.17480351 1019.82617485 493.16796875 1021.91015625 C493.16685593 1022.9049147 493.1657431 1023.89967316 493.16459656 1024.92457581 C493.15821671 1025.83899948 493.15183685 1026.75342316 493.14526367 1027.69555664 C493.13954597 1028.9089547 493.13954597 1028.9089547 493.13371277 1030.14686584 C493 1032 493 1032 492 1033 C490.00041636 1033.04080783 487.99954746 1033.04254356 486 1033 C486.01160156 1033.92683594 486.02320313 1034.85367187 486.03515625 1035.80859375 C486.04869141 1037.60490234 486.04869141 1037.60490234 486.0625 1039.4375 C486.07410156 1040.63246094 486.08570313 1041.82742188 486.09765625 1043.05859375 C486 1046 486 1046 485 1047 C483.00041636 1047.04080783 480.99954746 1047.04254356 479 1047 C479 1048.98 479 1050.96 479 1053 C476.69 1053.66 474.38 1054.32 472 1055 C471.67 1056.98 471.34 1058.96 471 1061 C468.00519083 1061.8723412 465.36424089 1062.10829766 462.25 1062.0625 C461.45078125 1062.05347656 460.6515625 1062.04445313 459.828125 1062.03515625 C459.22484375 1062.02355469 458.6215625 1062.01195312 458 1062 C457.67 1063.98 457.34 1065.96 457 1068 C453.85069107 1069.04976964 451.61185544 1069.10131595 448.3125 1069.0625 C447.31863281 1069.05347656 446.32476563 1069.04445313 445.30078125 1069.03515625 C444.54152344 1069.02355469 443.78226563 1069.01195312 443 1069 C443 1070.98 443 1072.96 443 1075 C439.80161082 1076.59919459 436.32946642 1076.16301759 432.81640625 1076.16796875 C432.0050975 1076.17129715 431.19378876 1076.17462555 430.3578949 1076.17805481 C428.64053922 1076.1831213 426.92317369 1076.18546322 425.20581055 1076.18530273 C422.57649536 1076.18748837 419.94760024 1076.20564436 417.31835938 1076.22460938 C415.6510431 1076.2275435 413.98372484 1076.22952817 412.31640625 1076.23046875 C411.13504845 1076.24124702 411.13504845 1076.24124702 409.92982483 1076.25224304 C406.0869531 1076.23613717 404.27399423 1076.18266282 401 1074 C400.8125 1071.375 400.8125 1071.375 401 1069 C400.32453125 1069.01160156 399.6490625 1069.02320313 398.953125 1069.03515625 C397.61507813 1069.04869141 397.61507813 1069.04869141 396.25 1069.0625 C395.36828125 1069.07410156 394.4865625 1069.08570313 393.578125 1069.09765625 C391.2181162 1069.00826198 389.25501476 1068.66912821 387 1068 C387 1066.02 387 1064.04 387 1062 C384.69 1061.67 382.38 1061.34 380 1061 C379.67 1059.02 379.34 1057.04 379 1055 C374.71 1054.67 370.42 1054.34 366 1054 C365.67 1051.69 365.34 1049.38 365 1047 C363.02 1047 361.04 1047 359 1047 C358.67 1044.69 358.34 1042.38 358 1040 C353.71 1040 349.42 1040 345 1040 C344.67 1037.69 344.34 1035.38 344 1033 C342.02 1033 340.04 1033 338 1033 C337.67 1030.69 337.34 1028.38 337 1026 C336.030625 1026.020625 335.06125 1026.04125 334.0625 1026.0625 C331 1026 331 1026 330 1025 C329.95919217 1023.00041636 329.95745644 1020.99954746 330 1019 C328.5459375 1019.0309375 328.5459375 1019.0309375 327.0625 1019.0625 C324 1019 324 1019 323 1018 C323 1016.02 323 1014.04 323 1012 C318.71 1012 314.42 1012 310 1012 C309.67 1009.69 309.34 1007.38 309 1005 C307.02 1005 305.04 1005 303 1005 C303 1007.31 303 1009.62 303 1012 C300.69 1012 298.38 1012 296 1012 C296.0309375 1013.4540625 296.0309375 1013.4540625 296.0625 1014.9375 C296 1018 296 1018 295 1019 C292.81360547 1019.07258946 290.62499611 1019.08373783 288.4375 1019.0625 C287.23996094 1019.05347656 286.04242187 1019.04445313 284.80859375 1019.03515625 C283.88175781 1019.02355469 282.95492187 1019.01195312 282 1019 C282.0309375 1020.4540625 282.0309375 1020.4540625 282.0625 1021.9375 C282 1025 282 1025 281 1026 C278.81360547 1026.07258946 276.62499611 1026.08373783 274.4375 1026.0625 C273.23996094 1026.05347656 272.04242187 1026.04445313 270.80859375 1026.03515625 C269.88175781 1026.02355469 268.95492187 1026.01195312 268 1026 C268.0309375 1027.4540625 268.0309375 1027.4540625 268.0625 1028.9375 C268 1032 268 1032 267 1033 C265.00041636 1033.04080783 262.99954746 1033.04254356 261 1033 C260.67 1035.31 260.34 1037.62 260 1040 C255.71 1040 251.42 1040 247 1040 C246.67 1042.31 246.34 1044.62 246 1047 C241.71 1047.33 237.42 1047.66 233 1048 C232.67 1049.98 232.34 1051.96 232 1054 C227.38 1054.33 222.76 1054.66 218 1055 C218 1056.98 218 1058.96 218 1061 C215.22276075 1061.78688445 212.77389923 1062.11949924 209.890625 1062.09765625 C209.13652344 1062.09443359 208.38242187 1062.09121094 207.60546875 1062.08789062 C206.82816406 1062.07951172 206.05085937 1062.07113281 205.25 1062.0625 C204.45722656 1062.05798828 203.66445313 1062.05347656 202.84765625 1062.04882812 C200.89840492 1062.03708565 198.94919262 1062.01915146 197 1062 C197 1063.98 197 1065.96 197 1068 C194.23434618 1068.92188461 192.61716298 1069.11785222 189.76953125 1069.09765625 C188.56586914 1069.09282227 188.56586914 1069.09282227 187.33789062 1069.08789062 C186.50451172 1069.07951172 185.67113281 1069.07113281 184.8125 1069.0625 C183.96751953 1069.05798828 183.12253906 1069.05347656 182.25195312 1069.04882812 C180.16793845 1069.03705403 178.08396023 1069.0191189 176 1069 C176 1070.98 176 1072.96 176 1075 C173.65147472 1076.17426264 172.26225935 1076.11508173 169.6484375 1076.09765625 C168.79765625 1076.09443359 167.946875 1076.09121094 167.0703125 1076.08789062 C166.18085937 1076.07951172 165.29140625 1076.07113281 164.375 1076.0625 C163.4778125 1076.05798828 162.580625 1076.05347656 161.65625 1076.04882812 C159.43743352 1076.03702591 157.21874982 1076.02056155 155 1076 C155 1077.98 155 1079.96 155 1082 C151.98786971 1083.50606515 148.88717378 1083.12160331 145.5859375 1083.09765625 C144.85629791 1083.0962413 144.12665833 1083.09482635 143.37490845 1083.09336853 C141.04156415 1083.08776531 138.70831536 1083.07521235 136.375 1083.0625 C134.79427222 1083.05748541 133.21354293 1083.05292243 131.6328125 1083.04882812 C127.75517146 1083.03779484 123.87760193 1083.02052811 120 1083 C120.0309375 1084.4540625 120.0309375 1084.4540625 120.0625 1085.9375 C120 1089 120 1089 119 1090 C117.00041636 1090.04080783 114.99954746 1090.04254356 113 1090 C113.0309375 1091.4540625 113.0309375 1091.4540625 113.0625 1092.9375 C113 1096 113 1096 112 1097 C110.00041636 1097.04080783 107.99954746 1097.04254356 106 1097 C106.00523682 1098.02472412 106.01047363 1099.04944824 106.01586914 1100.10522461 C106.03391969 1103.89395276 106.0454322 1107.68267709 106.05493164 1111.47143555 C106.05997174 1113.11369464 106.06680378 1114.75594923 106.07543945 1116.39819336 C106.08751926 1118.75375479 106.09323139 1121.10925709 106.09765625 1123.46484375 C106.10281754 1124.20339096 106.10797882 1124.94193817 106.11329651 1125.7028656 C106.1134925 1127.46898088 106.06194719 1129.23497146 106 1131 C105 1132 105 1132 101.9375 1132.0625 C100.968125 1132.041875 99.99875 1132.02125 99 1132 C99.00523682 1133.2367749 99.01047363 1134.4735498 99.01586914 1135.74780273 C99.03391561 1140.31924725 99.04543071 1144.89068859 99.05493164 1149.4621582 C99.05997267 1151.44393441 99.06680538 1153.42570689 99.07543945 1155.4074707 C99.08751515 1158.24952109 99.09323045 1161.09152247 99.09765625 1163.93359375 C99.10281754 1164.82525742 99.10797882 1165.71692108 99.11329651 1166.63560486 C99.11349177 1168.75740601 99.0621003 1170.8791078 99 1173 C98 1174 98 1174 94.9375 1174.0625 C93.968125 1174.041875 92.99875 1174.02125 92 1174 C92.00523682 1174.81267334 92.01047363 1175.62534668 92.01586914 1176.46264648 C92.03656994 1180.12092322 92.04963803 1183.77918767 92.0625 1187.4375 C92.07087891 1188.71689453 92.07925781 1189.99628906 92.08789062 1191.31445312 C92.09111328 1192.52939453 92.09433594 1193.74433594 92.09765625 1194.99609375 C92.10289307 1196.12200928 92.10812988 1197.2479248 92.11352539 1198.40795898 C92 1201 92 1201 91 1202 C89.00041636 1202.04080783 86.99954746 1202.04254356 85 1202 C85.01740234 1203.39025391 85.01740234 1203.39025391 85.03515625 1204.80859375 C85.04869141 1206.60490234 85.04869141 1206.60490234 85.0625 1208.4375 C85.07410156 1209.63246094 85.08570313 1210.82742188 85.09765625 1212.05859375 C85 1215 85 1215 84 1216 C82.00041636 1216.04080783 79.99954746 1216.04254356 78 1216 C78 1218.31 78 1220.62 78 1223 C75.69 1223 73.38 1223 71 1223 C71.0309375 1224.4540625 71.0309375 1224.4540625 71.0625 1225.9375 C71 1229 71 1229 70 1230 C67.81360547 1230.07258946 65.62499611 1230.08373783 63.4375 1230.0625 C62.23996094 1230.05347656 61.04242187 1230.04445313 59.80859375 1230.03515625 C58.88175781 1230.02355469 57.95492187 1230.01195312 57 1230 C57.0309375 1231.4540625 57.0309375 1231.4540625 57.0625 1232.9375 C57 1236 57 1236 56 1237 C54.03630847 1237.0940067 52.06920801 1237.11743381 50.10327148 1237.11352539 C48.84203964 1237.11344986 47.5808078 1237.11337433 46.28135681 1237.11329651 C44.89460206 1237.1081891 43.50784771 1237.10297309 42.12109375 1237.09765625 C40.71004791 1237.09579201 39.29900143 1237.09436814 37.88795471 1237.09336853 C34.16759465 1237.08954379 30.4472734 1237.0797139 26.72692871 1237.06866455 C22.93319219 1237.05844948 19.13944942 1237.05387071 15.34570312 1237.04882812 C7.89711769 1237.03809158 0.44856428 1237.0210157 -7 1237 C-7 1234.69 -7 1232.38 -7 1230 C-11.62 1230 -16.24 1230 -21 1230 C-21.33 1227.69 -21.66 1225.38 -22 1223 C-23.98 1223 -25.96 1223 -28 1223 C-28.33 1220.69 -28.66 1218.38 -29 1216 C-30.98 1216 -32.96 1216 -35 1216 C-36.38226016 1213.23547967 -36.09525387 1210.9538637 -36.0625 1207.875 C-36.05347656 1206.77929688 -36.04445313 1205.68359375 -36.03515625 1204.5546875 C-36.01775391 1203.29011719 -36.01775391 1203.29011719 -36 1202 C-37.98 1202 -39.96 1202 -42 1202 C-43.35700647 1199.28598706 -43.1123861 1197.15153684 -43.09765625 1194.1171875 C-43.09443359 1192.95058594 -43.09121094 1191.78398438 -43.08789062 1190.58203125 C-43.07951172 1189.35871094 -43.07113281 1188.13539062 -43.0625 1186.875 C-43.05798828 1185.64394531 -43.05347656 1184.41289063 -43.04882812 1183.14453125 C-43.0370133 1180.09630608 -43.02054028 1177.04817686 -43 1174 C-44.98 1174 -46.96 1174 -49 1174 C-50.69196504 1170.61606992 -50.11986549 1166.77522209 -50.09765625 1163.0546875 C-50.0962413 1162.1696756 -50.09482635 1161.2846637 -50.09336853 1160.37283325 C-50.0877614 1157.54018809 -50.07520771 1154.70762136 -50.0625 1151.875 C-50.05748592 1149.95703239 -50.05292285 1148.03906354 -50.04882812 1146.12109375 C-50.03778966 1141.41403218 -50.02052025 1136.7070294 -50 1132 C-51.98 1132 -53.96 1132 -56 1132 C-57.50606515 1128.98786971 -57.12160331 1125.88717378 -57.09765625 1122.5859375 C-57.0962413 1121.85629791 -57.09482635 1121.12665833 -57.09336853 1120.37490845 C-57.08776531 1118.04156415 -57.07521235 1115.70831536 -57.0625 1113.375 C-57.05748541 1111.79427222 -57.05292243 1110.21354293 -57.04882812 1108.6328125 C-57.03779484 1104.75517146 -57.02052811 1100.87760193 -57 1097 C-57.969375 1097.020625 -58.93875 1097.04125 -59.9375 1097.0625 C-63 1097 -63 1097 -64 1096 C-64.04080783 1094.00041636 -64.04254356 1091.99954746 -64 1090 C-64.969375 1090.020625 -65.93875 1090.04125 -66.9375 1090.0625 C-70 1090 -70 1090 -71 1089 C-71.04080783 1087.00041636 -71.04254356 1084.99954746 -71 1083 C-71.98919434 1083.00523682 -72.97838867 1083.01047363 -73.99755859 1083.01586914 C-77.66144916 1083.03394523 -81.32533577 1083.04544158 -84.98925781 1083.05493164 C-86.57617861 1083.05996588 -88.16309477 1083.06679369 -89.75 1083.07543945 C-92.02865749 1083.08754482 -94.30725376 1083.09323733 -96.5859375 1083.09765625 C-97.65320572 1083.10539818 -97.65320572 1083.10539818 -98.74203491 1083.11329651 C-103.77225659 1083.11387171 -103.77225659 1083.11387171 -106 1082 C-106 1080.02 -106 1078.04 -106 1076 C-107.26457031 1076.01160156 -108.52914063 1076.02320313 -109.83203125 1076.03515625 C-111.49218602 1076.04453566 -113.15234239 1076.0536357 -114.8125 1076.0625 C-115.64587891 1076.07087891 -116.47925781 1076.07925781 -117.33789062 1076.08789062 C-118.14033203 1076.09111328 -118.94277344 1076.09433594 -119.76953125 1076.09765625 C-120.50792236 1076.10289307 -121.24631348 1076.10812988 -122.00708008 1076.11352539 C-124 1076 -124 1076 -127 1075 C-127 1073.02 -127 1071.04 -127 1069 C-128.26457031 1069.01160156 -129.52914063 1069.02320313 -130.83203125 1069.03515625 C-132.49218602 1069.04453566 -134.15234239 1069.0536357 -135.8125 1069.0625 C-136.64587891 1069.07087891 -137.47925781 1069.07925781 -138.33789062 1069.08789062 C-139.14033203 1069.09111328 -139.94277344 1069.09433594 -140.76953125 1069.09765625 C-141.50792236 1069.10289307 -142.24631348 1069.10812988 -143.00708008 1069.11352539 C-145 1069 -145 1069 -148 1068 C-148 1066.02 -148 1064.04 -148 1062 C-148.67546875 1062.01160156 -149.3509375 1062.02320313 -150.046875 1062.03515625 C-151.38492188 1062.04869141 -151.38492188 1062.04869141 -152.75 1062.0625 C-153.63171875 1062.07410156 -154.5134375 1062.08570313 -155.421875 1062.09765625 C-157.7818838 1062.00826198 -159.74498524 1061.66912821 -162 1061 C-162 1059.02 -162 1057.04 -162 1055 C-166.62 1054.67 -171.24 1054.34 -176 1054 C-176 1051.69 -176 1049.38 -176 1047 C-180.62 1047 -185.24 1047 -190 1047 C-190 1044.69 -190 1042.38 -190 1040 C-194.62 1040 -199.24 1040 -204 1040 C-204 1037.69 -204 1035.38 -204 1033 C-208.62 1033 -213.24 1033 -218 1033 C-218 1030.69 -218 1028.38 -218 1026 C-222.62 1026 -227.24 1026 -232 1026 C-232.33 1023.69 -232.66 1021.38 -233 1019 C-234.98 1019 -236.96 1019 -239 1019 C-239.33 1016.69 -239.66 1014.38 -240 1012 C-241.4540625 1012.0309375 -241.4540625 1012.0309375 -242.9375 1012.0625 C-246 1012 -246 1012 -247 1011 C-247 1009.02 -247 1007.04 -247 1005 C-251.29 1005 -255.58 1005 -260 1005 C-260 1006.98 -260 1008.96 -260 1011 C-261 1012 -261 1012 -264.0625 1012.0625 C-265.031875 1012.041875 -266.00125 1012.02125 -267 1012 C-266.9690625 1013.4540625 -266.9690625 1013.4540625 -266.9375 1014.9375 C-267 1018 -267 1018 -268 1019 C-270.18639453 1019.07258946 -272.37500389 1019.08373783 -274.5625 1019.0625 C-275.76003906 1019.05347656 -276.95757812 1019.04445313 -278.19140625 1019.03515625 C-279.11824219 1019.02355469 -280.04507812 1019.01195312 -281 1019 C-280.9690625 1020.4540625 -280.9690625 1020.4540625 -280.9375 1021.9375 C-281 1025 -281 1025 -282 1026 C-283.99958364 1026.04080783 -286.00045254 1026.04254356 -288 1026 C-287.9690625 1027.4540625 -287.9690625 1027.4540625 -287.9375 1028.9375 C-288 1032 -288 1032 -289 1033 C-290.99958364 1033.04080783 -293.00045254 1033.04254356 -295 1033 C-295.33 1035.31 -295.66 1037.62 -296 1040 C-300.29 1040 -304.58 1040 -309 1040 C-309 1041.98 -309 1043.96 -309 1046 C-310 1047 -310 1047 -313.0625 1047.0625 C-314.031875 1047.041875 -315.00125 1047.02125 -316 1047 C-316 1048.98 -316 1050.96 -316 1053 C-316.94875 1053.20625 -317.8975 1053.4125 -318.875 1053.625 C-322.29166667 1054.70833333 -322.29166667 1054.70833333 -323.375 1058.125 C-323.684375 1059.548125 -323.684375 1059.548125 -324 1061 C-328.40914783 1062.10228696 -332.48382401 1062.07654536 -337 1062 C-337.33 1063.98 -337.66 1065.96 -338 1068 C-342.09003859 1069.14982602 -346.03177051 1069.11094256 -350.25 1069.0625 C-350.99507812 1069.05798828 -351.74015625 1069.05347656 -352.5078125 1069.04882812 C-354.3385764 1069.03709246 -356.16929873 1069.0191585 -358 1069 C-358.33 1070.98 -358.66 1072.96 -359 1075 C-362.02828412 1076.00942804 -364.08728464 1076.12899302 -367.25390625 1076.1328125 C-368.27291016 1076.13410156 -369.29191406 1076.13539062 -370.34179688 1076.13671875 C-371.40462891 1076.13285156 -372.46746094 1076.12898438 -373.5625 1076.125 C-374.62919922 1076.12886719 -375.69589844 1076.13273437 -376.79492188 1076.13671875 C-378.32149414 1076.13478516 -378.32149414 1076.13478516 -379.87890625 1076.1328125 C-381.27991577 1076.13112061 -381.27991577 1076.13112061 -382.70922852 1076.12939453 C-385 1076 -385 1076 -387 1075 C-387 1073.02 -387 1071.04 -387 1069 C-388.26457031 1069.01160156 -389.52914062 1069.02320313 -390.83203125 1069.03515625 C-392.49218602 1069.04453566 -394.15234239 1069.0536357 -395.8125 1069.0625 C-396.64587891 1069.07087891 -397.47925781 1069.07925781 -398.33789062 1069.08789062 C-399.14033203 1069.09111328 -399.94277344 1069.09433594 -400.76953125 1069.09765625 C-401.50792236 1069.10289307 -402.24631348 1069.10812988 -403.00708008 1069.11352539 C-405 1069 -405 1069 -408 1068 C-408 1066.02 -408 1064.04 -408 1062 C-410.31 1061.67 -412.62 1061.34 -415 1061 C-415 1059.02 -415 1057.04 -415 1055 C-417.31 1054.67 -419.62 1054.34 -422 1054 C-422 1051.69 -422 1049.38 -422 1047 C-424.31 1047 -426.62 1047 -429 1047 C-429 1044.69 -429 1042.38 -429 1040 C-431.31 1040 -433.62 1040 -436 1040 C-436.33 1035.38 -436.66 1030.76 -437 1026 C-438.98 1026 -440.96 1026 -443 1026 C-444.20261696 1022.22780145 -444.16160901 1018.48403339 -444.16796875 1014.56640625 C-444.17129715 1013.85145493 -444.17462555 1013.1365036 -444.17805481 1012.39988708 C-444.18310591 1010.89119101 -444.1854637 1009.38248382 -444.18530273 1007.8737793 C-444.18748919 1005.57386773 -444.20566355 1003.27443617 -444.22460938 1000.97460938 C-444.22754375 999.50520997 -444.22952825 998.03580829 -444.23046875 996.56640625 C-444.23765427 995.88292618 -444.24483978 995.19944611 -444.25224304 994.49525452 C-444.23351158 990.55370713 -443.72679518 987.55154333 -442 984 C-440.35 984 -438.7 984 -437 984 C-436.93941406 983.07316406 -436.87882813 982.14632812 -436.81640625 981.19140625 C-436.73261719 979.99386719 -436.64882813 978.79632812 -436.5625 977.5625 C-436.44068359 975.77005859 -436.44068359 975.77005859 -436.31640625 973.94140625 C-436 971 -436 971 -435 970 C-433.00041636 969.95919217 -430.99954746 969.95745644 -429 970 C-429.01160156 969.07316406 -429.02320313 968.14632812 -429.03515625 967.19140625 C-429.04417969 965.99386719 -429.05320312 964.79632812 -429.0625 963.5625 C-429.07410156 962.36753906 -429.08570313 961.17257812 -429.09765625 959.94140625 C-429 957 -429 957 -428 956 C-426.00041636 955.95919217 -423.99954746 955.95745644 -422 956 C-422 953.69 -422 951.38 -422 949 C-419.69 949 -417.38 949 -415 949 C-415 944.38 -415 939.76 -415 935 C-412.69 935 -410.38 935 -408 935 C-408 932.69 -408 930.38 -408 928 C-405.69 928 -403.38 928 -401 928 C-401 925.69 -401 923.38 -401 921 C-398.69 921 -396.38 921 -394 921 C-394 916.38 -394 911.76 -394 907 C-391.69 907 -389.38 907 -387 907 C-387 904.69 -387 902.38 -387 900 C-384.69 900 -382.38 900 -380 900 C-380 897.69 -380 895.38 -380 893 C-377.69 893 -375.38 893 -373 893 C-373 890.69 -373 888.38 -373 886 C-373.969375 886.020625 -374.93875 886.04125 -375.9375 886.0625 C-379 886 -379 886 -380 885 C-380.07258946 882.81360547 -380.08373783 880.62499611 -380.0625 878.4375 C-380.05347656 877.23996094 -380.04445313 876.04242187 -380.03515625 874.80859375 C-380.02355469 873.88175781 -380.01195312 872.95492187 -380 872 C-380.969375 872.020625 -381.93875 872.04125 -382.9375 872.0625 C-386 872 -386 872 -387 871 C-387.04080783 869.00041636 -387.04254356 866.99954746 -387 865 C-389.31 864.67 -391.62 864.34 -394 864 C-394 859.71 -394 855.42 -394 851 C-396.31 850.67 -398.62 850.34 -401 850 C-401 845.38 -401 840.76 -401 836 C-403.31 836 -405.62 836 -408 836 C-408 831.38 -408 826.76 -408 822 C-410.31 822 -412.62 822 -415 822 C-415 817.38 -415 812.76 -415 808 C-417.31 808 -419.62 808 -422 808 C-422 803.38 -422 798.76 -422 794 C-424.31 794 -426.62 794 -429 794 C-429 787.07 -429 780.14 -429 773 C-431.31 773 -433.62 773 -436 773 C-437.05838127 766.99139451 -437.11662571 761.15372439 -437.0625 755.0625 C-437.05798828 754.09248047 -437.05347656 753.12246094 -437.04882812 752.12304688 C-437.0371315 749.7486324 -437.02074086 747.37434979 -437 745 C-438.98 745 -440.96 745 -443 745 C-443.97685365 740.9269597 -444.11545444 737.131793 -444.09765625 732.94921875 C-444.09553383 731.96100883 -444.09553383 731.96100883 -444.09336853 730.95283508 C-444.087805 728.86434238 -444.07525947 726.77595989 -444.0625 724.6875 C-444.05748028 723.26497551 -444.0529182 721.84244934 -444.04882812 720.41992188 C-444.03784757 716.94657923 -444.02060835 713.47330039 -444 710 C-445.98 710 -447.96 710 -450 710 C-450.33 707.69 -450.66 705.38 -451 703 C-455.29 703 -459.58 703 -464 703 C-464.33 700.69 -464.66 698.38 -465 696 C-466.2367749 696.00523682 -467.4735498 696.01047363 -468.74780273 696.01586914 C-473.31924725 696.03391561 -477.89068859 696.04543071 -482.4621582 696.05493164 C-484.44393441 696.05997267 -486.42570689 696.06680538 -488.4074707 696.07543945 C-491.24952109 696.08751515 -494.09152247 696.09323045 -496.93359375 696.09765625 C-498.27108925 696.10539818 -498.27108925 696.10539818 -499.63560486 696.11329651 C-501.75740601 696.11349177 -503.8791078 696.0621003 -506 696 C-507 695 -507 695 -507.0625 691.9375 C-507.041875 690.968125 -507.02125 689.99875 -507 689 C-507.81267334 689.00523682 -508.62534668 689.01047363 -509.46264648 689.01586914 C-513.12092322 689.03656994 -516.77918767 689.04963803 -520.4375 689.0625 C-521.71689453 689.07087891 -522.99628906 689.07925781 -524.31445312 689.08789062 C-525.52939453 689.09111328 -526.74433594 689.09433594 -527.99609375 689.09765625 C-529.12200928 689.10289307 -530.2479248 689.10812988 -531.40795898 689.11352539 C-534 689 -534 689 -535 688 C-535.04080783 686.00041636 -535.04254356 683.99954746 -535 682 C-535.81267334 682.00523682 -536.62534668 682.01047363 -537.46264648 682.01586914 C-541.12092322 682.03656994 -544.77918767 682.04963803 -548.4375 682.0625 C-549.71689453 682.07087891 -550.99628906 682.07925781 -552.31445312 682.08789062 C-553.52939453 682.09111328 -554.74433594 682.09433594 -555.99609375 682.09765625 C-557.12200928 682.10289307 -558.2479248 682.10812988 -559.40795898 682.11352539 C-562 682 -562 682 -563 681 C-563.04080783 679.00041636 -563.04254356 676.99954746 -563 675 C-564.39025391 675.01740234 -564.39025391 675.01740234 -565.80859375 675.03515625 C-567.00613281 675.04417969 -568.20367188 675.05320312 -569.4375 675.0625 C-570.63246094 675.07410156 -571.82742188 675.08570313 -573.05859375 675.09765625 C-576 675 -576 675 -577 674 C-577.04080783 672.00041636 -577.04254356 669.99954746 -577 668 C-578.4540625 668.0309375 -578.4540625 668.0309375 -579.9375 668.0625 C-583 668 -583 668 -584 667 C-584.04080783 665.00041636 -584.04254356 662.99954746 -584 661 C-585.4540625 661.0309375 -585.4540625 661.0309375 -586.9375 661.0625 C-590 661 -590 661 -591 660 C-591.04080783 658.00041636 -591.04254356 655.99954746 -591 654 C-593.31 653.67 -595.62 653.34 -598 653 C-598 646.4 -598 639.8 -598 633 C-600.31 632.67 -602.62 632.34 -605 632 C-605 625.4 -605 618.8 -605 612 C-602.69 612 -600.38 612 -598 612 C-598 602.76 -598 593.52 -598 584 C-595.69 583.67 -593.38 583.34 -591 583 C-591 578.71 -591 574.42 -591 570 C-588.69 569.67 -586.38 569.34 -584 569 C-584 567.02 -584 565.04 -584 563 C-581.23547967 561.61773984 -578.9538637 561.90474613 -575.875 561.9375 C-574.77929688 561.94652344 -573.68359375 561.95554687 -572.5546875 561.96484375 C-571.29011719 561.98224609 -571.29011719 561.98224609 -570 562 C-570.020625 561.030625 -570.04125 560.06125 -570.0625 559.0625 C-570 556 -570 556 -569 555 C-567.5112814 554.91330568 -566.018555 554.89296506 -564.52734375 554.90234375 C-563.62822266 554.90556641 -562.72910156 554.90878906 -561.80273438 554.91210938 C-560.85720703 554.92048828 -559.91167969 554.92886719 -558.9375 554.9375 C-557.98810547 554.94201172 -557.03871094 554.94652344 -556.06054688 554.95117188 C-553.70696935 554.9629989 -551.35351523 554.97947975 -549 555 C-549.020625 554.030625 -549.04125 553.06125 -549.0625 552.0625 C-549 549 -549 549 -548 548 C-545.47905924 547.91152257 -542.98569107 547.88472699 -540.46484375 547.90234375 C-539.71159317 547.9037587 -538.95834259 547.90517365 -538.18226624 547.90663147 C-535.7673044 547.91224624 -533.35243399 547.92480117 -530.9375 547.9375 C-529.30403779 547.9425131 -527.67057414 547.94707634 -526.03710938 547.95117188 C-522.02470415 547.96222046 -518.01236759 547.97949494 -514 548 C-514.020625 547.030625 -514.04125 546.06125 -514.0625 545.0625 C-514 542 -514 542 -513 541 C-510.47905924 540.91152257 -507.98569107 540.88472699 -505.46484375 540.90234375 C-504.71159317 540.9037587 -503.95834259 540.90517365 -503.18226624 540.90663147 C-500.7673044 540.91224624 -498.35243399 540.92480117 -495.9375 540.9375 C-494.30403779 540.9425131 -492.67057414 540.94707634 -491.03710938 540.95117188 C-487.02470415 540.96222046 -483.01236759 540.97949494 -479 541 C-478.67 538.69 -478.34 536.38 -478 534 C-469.09 534 -460.18 534 -451 534 C-451 530.7 -451 527.4 -451 524 C-450.67 522.68 -450.34 521.36 -450 520 C-448.02 520 -446.04 520 -444 520 C-444.00523682 519.11739502 -444.01047363 518.23479004 -444.01586914 517.32543945 C-444.03295971 514.03604473 -444.04547384 510.74669753 -444.05493164 507.45727539 C-444.05994565 506.03636936 -444.06675852 504.61546844 -444.07543945 503.19458008 C-444.08763388 501.14663424 -444.09325772 499.0987569 -444.09765625 497.05078125 C-444.10289307 495.82012939 -444.10812988 494.58947754 -444.11352539 493.3215332 C-444.01393817 490.40780381 -443.67799322 487.82692674 -443 485 C-441.02 485 -439.04 485 -437 485 C-437.01160156 484.07058594 -437.02320313 483.14117187 -437.03515625 482.18359375 C-437.12478032 469.90509666 -437.12478032 469.90509666 -436 464 C-433.69 464 -431.38 464 -429 464 C-429 459.38 -429 454.76 -429 450 C-426.69 450 -424.38 450 -422 450 C-422 443.07 -422 436.14 -422 429 C-419.69 429 -417.38 429 -415 429 C-415 424.38 -415 419.76 -415 415 C-412.69 415 -410.38 415 -408 415 C-408 410.38 -408 405.76 -408 401 C-405.69 401 -403.38 401 -401 401 C-401 396.38 -401 391.76 -401 387 C-399.02 386.67 -397.04 386.34 -395 386 C-394.67 384.02 -394.34 382.04 -394 380 C-391.69 379.67 -389.38 379.34 -387 379 C-387 374.71 -387 370.42 -387 366 C-384.69 365.67 -382.38 365.34 -380 365 C-380.0309375 363.5459375 -380.0309375 363.5459375 -380.0625 362.0625 C-380 359 -380 359 -379 358 C-377.02 358 -375.04 358 -373 358 C-373 353.38 -373 348.76 -373 344 C-375.31 344 -377.62 344 -380 344 C-380 341.69 -380 339.38 -380 337 C-382.31 337 -384.62 337 -387 337 C-387 334.69 -387 332.38 -387 330 C-389.31 330 -391.62 330 -394 330 C-394 325.38 -394 320.76 -394 316 C-396.31 316 -398.62 316 -401 316 C-401 313.69 -401 311.38 -401 309 C-403.31 309 -405.62 309 -408 309 C-408 306.69 -408 304.38 -408 302 C-410.31 302 -412.62 302 -415 302 C-415 297.38 -415 292.76 -415 288 C-417.31 288 -419.62 288 -422 288 C-422 285.69 -422 283.38 -422 281 C-424.31 281 -426.62 281 -429 281 C-429 276.38 -429 271.76 -429 267 C-430.98 267 -432.96 267 -435 267 C-436.5912689 262.126739 -437.21192221 258.19209404 -437 253 C-438.65 253 -440.3 253 -442 253 C-443.77789491 249.17072176 -444.24713427 246.17337808 -444.23046875 241.96484375 C-444.22853516 240.82595703 -444.22660156 239.68707031 -444.22460938 238.51367188 C-444.21236328 237.33353516 -444.20011719 236.15339844 -444.1875 234.9375 C-444.1865332 233.16149414 -444.1865332 233.16149414 -444.18554688 231.34960938 C-444.13679069 221.78797934 -444.13679069 221.78797934 -443 218 C-441.02 218 -439.04 218 -437 218 C-437.01160156 217.07058594 -437.02320313 216.14117187 -437.03515625 215.18359375 C-437.12478032 202.90509666 -437.12478032 202.90509666 -436 197 C-433.69 197 -431.38 197 -429 197 C-429 194.69 -429 192.38 -429 190 C-426.69 190 -424.38 190 -422 190 C-422 187.69 -422 185.38 -422 183 C-419.69 183 -417.38 183 -415 183 C-415 180.69 -415 178.38 -415 176 C-412.69 175.67 -410.38 175.34 -408 175 C-408 173.02 -408 171.04 -408 169 C-405.22276075 168.21311555 -402.77389923 167.88050076 -399.890625 167.90234375 C-399.13652344 167.90556641 -398.38242187 167.90878906 -397.60546875 167.91210938 C-396.82816406 167.92048828 -396.05085937 167.92886719 -395.25 167.9375 C-394.45722656 167.94201172 -393.66445313 167.94652344 -392.84765625 167.95117188 C-390.89840492 167.96291435 -388.94919262 167.98084854 -387 168 C-387 166.02 -387 164.04 -387 162 C-384.10983576 161.03661192 -382.25824745 160.87122831 -379.25390625 160.8671875 C-378.33416016 160.86589844 -377.41441406 160.86460937 -376.46679688 160.86328125 C-375.02916992 160.86908203 -375.02916992 160.86908203 -373.5625 160.875 C-372.60794922 160.87113281 -371.65339844 160.86726562 -370.66992188 160.86328125 C-369.74888672 160.86457031 -368.82785156 160.86585938 -367.87890625 160.8671875 C-367.0391626 160.86831543 -366.19941895 160.86944336 -365.33422852 160.87060547 C-363.09241513 160.9948771 -361.15104546 161.37603261 -359 162 C-358.67 163.98 -358.34 165.96 -358 168 C-356.46279297 167.98259766 -356.46279297 167.98259766 -354.89453125 167.96484375 C-353.533856 167.95545978 -352.17317876 167.94636023 -350.8125 167.9375 C-350.13896484 167.92912109 -349.46542969 167.92074219 -348.77148438 167.91210938 C-345.04565869 167.89393462 -341.6211958 168.10700608 -338 169 C-337.67 170.98 -337.34 172.96 -337 175 C-332.71 175.33 -328.42 175.66 -324 176 C-323.67 178.31 -323.34 180.62 -323 183 C-321.5459375 182.9690625 -321.5459375 182.9690625 -320.0625 182.9375 C-317 183 -317 183 -316 184 C-315.95919217 185.99958364 -315.95745644 188.00045254 -316 190 C-314.5459375 189.9690625 -314.5459375 189.9690625 -313.0625 189.9375 C-310 190 -310 190 -309 191 C-309 192.98 -309 194.96 -309 197 C-304.71 197 -300.42 197 -296 197 C-295.67 199.31 -295.34 201.62 -295 204 C-293.5459375 203.9690625 -293.5459375 203.9690625 -292.0625 203.9375 C-289 204 -289 204 -288 205 C-287.95919217 206.99958364 -287.95745644 209.00045254 -288 211 C-286.5459375 210.9690625 -286.5459375 210.9690625 -285.0625 210.9375 C-282 211 -282 211 -281 212 C-280.95919217 213.99958364 -280.95745644 216.00045254 -281 218 C-279.5459375 217.9690625 -279.5459375 217.9690625 -278.0625 217.9375 C-275 218 -275 218 -274 219 C-273.95919217 220.99958364 -273.95745644 223.00045254 -274 225 C-272.60974609 224.98259766 -272.60974609 224.98259766 -271.19140625 224.96484375 C-269.99386719 224.95582031 -268.79632813 224.94679687 -267.5625 224.9375 C-266.36753906 224.92589844 -265.17257812 224.91429687 -263.94140625 224.90234375 C-261 225 -261 225 -260 226 C-259.95919217 227.99958364 -259.95745644 230.00045254 -260 232 C-258.02 232 -256.04 232 -254 232 C-253.67 229.69 -253.34 227.38 -253 225 C-248.71 225 -244.42 225 -240 225 C-239.67 222.69 -239.34 220.38 -239 218 C-237.02 218 -235.04 218 -233 218 C-232.67 215.69 -232.34 213.38 -232 211 C-227.38 211 -222.76 211 -218 211 C-218 208.69 -218 206.38 -218 204 C-213.38 204 -208.76 204 -204 204 C-204 201.69 -204 199.38 -204 197 C-201.69 197 -199.38 197 -197 197 C-197 194.69 -197 192.38 -197 190 C-192.38 190 -187.76 190 -183 190 C-183 187.69 -183 185.38 -183 183 C-176.07 183 -169.14 183 -162 183 C-162 180.69 -162 178.38 -162 176 C-157.38 175.67 -152.76 175.34 -148 175 C-148 173.02 -148 171.04 -148 169 C-143.5621439 167.88834768 -139.23043614 167.88472237 -134.6875 167.9375 C-133.94693359 167.94201172 -133.20636719 167.94652344 -132.44335938 167.95117188 C-130.62887101 167.96287825 -128.81442466 167.98081102 -127 168 C-127 166.02 -127 164.04 -127 162 C-124.23434618 161.07811539 -122.61716298 160.88214778 -119.76953125 160.90234375 C-118.96708984 160.90556641 -118.16464844 160.90878906 -117.33789062 160.91210938 C-116.50451172 160.92048828 -115.67113281 160.92886719 -114.8125 160.9375 C-113.96751953 160.94201172 -113.12253906 160.94652344 -112.25195312 160.95117188 C-110.16793845 160.96294597 -108.08396023 160.9808811 -106 161 C-106 159.02 -106 157.04 -106 155 C-102.4937557 153.8312519 -99.3522134 153.87485733 -95.70703125 153.90234375 C-94.64798836 153.90446617 -94.64798836 153.90446617 -93.56755066 153.90663147 C-91.31582374 153.91222236 -89.06419679 153.92477312 -86.8125 153.9375 C-85.28450665 153.94251618 -83.75651173 153.94707888 -82.22851562 153.95117188 C-78.48563865 153.9621888 -74.74283627 153.97944713 -71 154 C-71.061875 152.824375 -71.061875 152.824375 -71.125 151.625 C-71 149 -71 149 -69 147 C-66.1796875 146.8046875 -66.1796875 146.8046875 -62.875 146.875 C-61.77929688 146.89304688 -60.68359375 146.91109375 -59.5546875 146.9296875 C-58.71164062 146.95289063 -57.86859375 146.97609375 -57 147 C-57.00523682 145.79875488 -57.01047363 144.59750977 -57.01586914 143.35986328 C-57.03393653 138.91325624 -57.0454384 134.46665247 -57.05493164 130.02001953 C-57.05996787 128.09358169 -57.06679712 126.16714769 -57.07543945 124.24072266 C-57.08753608 121.47557632 -57.09323533 118.71048042 -57.09765625 115.9453125 C-57.10281754 115.0806839 -57.10797882 114.2160553 -57.11329651 113.32522583 C-57.11387171 107.22774341 -57.11387171 107.22774341 -56 105 C-54.02 105 -52.04 105 -50 105 C-50.00523682 104.01080566 -50.01047363 103.02161133 -50.01586914 102.00244141 C-50.03394523 98.33855084 -50.04544158 94.67466423 -50.05493164 91.01074219 C-50.05996588 89.42382139 -50.06679369 87.83690523 -50.07543945 86.25 C-50.08754482 83.97134251 -50.09323733 81.69274624 -50.09765625 79.4140625 C-50.10281754 78.70255035 -50.10797882 77.99103821 -50.11329651 77.25796509 C-50.11387171 72.22774341 -50.11387171 72.22774341 -49 70 C-47.02 70 -45.04 70 -43 70 C-43.00523682 69.01080566 -43.01047363 68.02161133 -43.01586914 67.00244141 C-43.03394523 63.33855084 -43.04544158 59.67466423 -43.05493164 56.01074219 C-43.05996588 54.42382139 -43.06679369 52.83690523 -43.07543945 51.25 C-43.08754482 48.97134251 -43.09323733 46.69274624 -43.09765625 44.4140625 C-43.10281754 43.70255035 -43.10797882 42.99103821 -43.11329651 42.25796509 C-43.11387171 37.22774341 -43.11387171 37.22774341 -42 35 C-40.02 35 -38.04 35 -36 35 C-36.01160156 34.15695313 -36.02320313 33.31390625 -36.03515625 32.4453125 C-36.04869141 30.80175781 -36.04869141 30.80175781 -36.0625 29.125 C-36.07410156 28.03445312 -36.08570313 26.94390625 -36.09765625 25.8203125 C-36 23 -36 23 -35 21 C-33.02 21 -31.04 21 -29 21 C-28.67 18.69 -28.34 16.38 -28 14 C-23.71 14 -19.42 14 -15 14 C-14.67 11.69 -14.34 9.38 -14 7 C-9.38 7 -4.76 7 0 7 C0 4.69 0 2.38 0 0 Z " fill="#000000" transform="translate(626,25)"/>
</svg>
